<?xml version="1.0" encoding="utf-8" standalone="yes"?>
<!DOCTYPE svg PUBLIC "-//W3C//DTD SVG 1.1//EN" "http://www.w3.org/Graphics/SVG/1.1/DTD/svg11.dtd">
<svg width="746" height="679" viewBox="0 0 746 679" style="fill:none;stroke:none;fill-rule:evenodd;clip-rule:evenodd;stroke-linecap:round;stroke-linejoin:round;stroke-miterlimit:1.5;" version="1.1" xmlns="http://www.w3.org/2000/svg" xmlns:xlink="http://www.w3.org/1999/xlink"><style id="fontImports">@import url("https://fonts.googleapis.com/css2?family=Roboto:wght@400;700&amp;display=block");</style><g id="items" style="isolation: isolate"><g id="blend" style="mix-blend-mode: normal"><g id="g-root-0.cu_sy_8yzyg11r15o23-fill" data-item-order="-60142" transform="translate(307, 207)"><g id="0.cu_sy_8yzyg11r15o23-fill" stroke="none" fill="#666666"><g><path d="M 54.78 406.78L 60.38 409.98L 61.98 405.18L 66 409.18L 70.02 405.18L 71.62 409.98L 77.22 406.78L 122 346L 94 358L 38 358L 10 346L 54.78 406.78ZM 94 298L 38 298L 10 310L 38 322L 94 322L 122 310L 94 298ZM 66 314.8C 54.95 314.8 46 312.65 46 310C 46 307.35 54.95 305.2 66 305.2C 77.05 305.2 86 307.35 86 310C 86 312.65 77.05 314.8 66 314.8ZM 94 226L 38 226L 10 238L 38 250L 94 250L 122 238L 94 226ZM 66 242.8C 54.95 242.8 46 240.65 46 238C 46 235.35 54.95 233.2 66 233.2C 77.05 233.2 86 235.35 86 238C 86 240.65 77.05 242.8 66 242.8ZM 94 154L 38 154L 10 166L 38 178L 94 178L 122 166L 94 154ZM 66 170.8C 54.95 170.8 46 168.65 46 166C 46 163.35 54.95 161.2 66 161.2C 77.05 161.2 86 163.35 86 166C 86 168.65 77.05 170.8 66 170.8ZM 94 82L 38 82L 10 94L 38 106L 94 106L 122 94L 94 82ZM 66 98.8C 54.95 98.8 46 96.65 46 94C 46 91.35 54.95 89.2 66 89.2C 77.05 89.2 86 91.35 86 94C 86 96.65 77.05 98.8 66 98.8ZM 94 10L 38 10L 10 22L 38 34L 94 34L 122 22L 94 10ZM 66 26.8C 54.95 26.8 46 24.65 46 22C 46 19.35 54.95 17.2 66 17.2C 77.05 17.2 86 19.35 86 22C 86 24.65 77.05 26.8 66 26.8Z"></path></g></g></g><g id="g-root-0.cu_1_sy_1uoni1t1r15pfw-fill" data-item-order="-60140" transform="translate(307.000244140625, 115)"><g id="0.cu_1_sy_1uoni1t1r15pfw-fill" stroke="none" fill="#666666"><g><path d="M 54.779785 498.780176L 60.379785 501.980176L 61.979785 497.180176L 65.999785 501.180176L 70.019785 497.180176L 71.619785 501.980176L 77.219785 498.780176L 65.999785 514.000176L 54.779785 498.780176ZM 65.999756 406.800195C 77.045456 406.800195 85.999756 404.651195 85.999756 402.000195C 85.999756 399.349195 77.045456 397.200195 65.999756 397.200195C 54.954056 397.200195 45.999756 399.349195 45.999756 402.000195C 45.999756 404.651195 54.954056 406.800195 65.999756 406.800195ZM 65.999756 334.800195C 77.045456 334.800195 85.999756 332.651195 85.999756 330.000195C 85.999756 327.349195 77.045456 325.200195 65.999756 325.200195C 54.954056 325.200195 45.999756 327.349195 45.999756 330.000195C 45.999756 332.651195 54.954056 334.800195 65.999756 334.800195ZM 65.999756 262.800195C 77.045456 262.800195 85.999756 260.651195 85.999756 258.000195C 85.999756 255.349195 77.045456 253.200195 65.999756 253.200195C 54.954056 253.200195 45.999756 255.349195 45.999756 258.000195C 45.999756 260.651195 54.954056 262.800195 65.999756 262.800195ZM 65.999756 190.800195C 77.045456 190.800195 85.999756 188.651195 85.999756 186.000195C 85.999756 183.349195 77.045456 181.200195 65.999756 181.200195C 54.954056 181.200195 45.999756 183.349195 45.999756 186.000195C 45.999756 188.651195 54.954056 190.800195 65.999756 190.800195ZM 65.999756 118.800195C 77.045456 118.800195 85.999756 116.651195 85.999756 114.000195C 85.999756 111.349195 77.045456 109.200195 65.999756 109.200195C 54.954056 109.200195 45.999756 111.349195 45.999756 114.000195C 45.999756 116.651195 54.954056 118.800195 65.999756 118.800195ZM 10 34L 38 46L 94 46L 122 34L 122 42L 94 54L 38 54L 10 42L 10 34ZM 10 26L 38 38L 94 38L 122 26L 122 34L 94 46L 38 46L 10 34L 10 26ZM 10 26L 38 38L 94 38L 122 26L 122 10L 94 22L 38 22L 10 10L 10 26Z"></path></g></g></g><g id="g-root-6.cu_sy_1cxzyn51r15on9-fill" data-item-order="-60136" transform="translate(391, 507)"><g id="6.cu_sy_1cxzyn51r15on9-fill" stroke="none" fill="#e55753"><g><path d="M 10 58L 38 46L 38 10L 10 22L 10 58Z"></path></g></g></g><g id="g-root-6.cu_1_sy_zn5xcx1r15n2e-fill" data-item-order="-60134" transform="translate(335, 519)"><g id="6.cu_1_sy_zn5xcx1r15n2e-fill" stroke="none" fill="#e55753"><g><path d="M 66 10L 10 10L 10 46L 66 46L 66 10Z"></path></g></g></g><g id="g-root-6.cu_2_sy_qrix411r15nv3-fill" data-item-order="-60132" transform="translate(307, 507)"><g id="6.cu_2_sy_qrix411r15nv3-fill" stroke="none" fill="#e55753"><g><path d="M 38 22L 10 10L 10 46L 38 58L 38 22Z"></path></g></g></g><g id="g-root-5.cu_sy_mbpezl1r15onc-fill" data-item-order="-60128" transform="translate(391, 435)"><g id="5.cu_sy_mbpezl1r15onc-fill" stroke="none" fill="#de8431"><g><path d="M 10 58L 38 46L 38 10L 10 22L 10 58Z"></path></g></g></g><g id="g-root-5.cu_1_sy_hvvwv51r15pfl-fill" data-item-order="-60126" transform="translate(335, 447)"><g id="5.cu_1_sy_hvvwv51r15pfl-fill" stroke="none" fill="#de8431"><g><path d="M 66 10L 10 10L 10 46L 66 46L 66 10Z"></path></g></g></g><g id="g-root-5.cu_2_sy_4l1vkx1r15nuq-fill" data-item-order="-60124" transform="translate(307, 435)"><g id="5.cu_2_sy_4l1vkx1r15nuq-fill" stroke="none" fill="#de8431"><g><path d="M 38 22L 10 10L 10 46L 38 58L 38 22Z"></path></g></g></g><g id="g-root-4.cu_sy_1uqixb51r15ogb-fill" data-item-order="-60120" transform="translate(391, 363)"><g id="4.cu_sy_1uqixb51r15ogb-fill" stroke="none" fill="#e0cb15"><g><path d="M 10 58L 38 46L 38 10L 10 22L 10 58Z"></path></g></g></g><g id="g-root-4.cu_1_sy_1qapf6p1r15p8k-fill" data-item-order="-60118" transform="translate(335, 375)"><g id="4.cu_1_sy_1qapf6p1r15p8k-fill" stroke="none" fill="#e0cb15"><g><path d="M 66 10L 10 10L 10 46L 66 46L 66 10Z"></path></g></g></g><g id="g-root-4.cu_2_sy_1hfow0x1r15mvh-fill" data-item-order="-60116" transform="translate(307, 363)"><g id="4.cu_2_sy_1hfow0x1r15mvh-fill" stroke="none" fill="#e0cb15"><g><path d="M 38 22L 10 10L 10 46L 38 58L 38 22Z"></path></g></g></g><g id="g-root-3.cu_sy_1czvdwh1r15nnq-fill" data-item-order="-60112" transform="translate(391, 291)"><g id="3.cu_sy_1czvdwh1r15nnq-fill" stroke="none" fill="#92bd39"><g><path d="M 10 58L 38 46L 38 10L 10 22L 10 58Z"></path></g></g></g><g id="g-root-3.cu_1_sy_1448dnl1r15ogf-fill" data-item-order="-60110" transform="translate(335, 303)"><g id="3.cu_1_sy_1448dnl1r15ogf-fill" stroke="none" fill="#92bd39"><g><path d="M 66 10L 10 10L 10 46L 66 46L 66 10Z"></path></g></g></g><g id="g-root-3.cu_2_sy_v97uht1r15mv4-fill" data-item-order="-60108" transform="translate(307, 291)"><g id="3.cu_2_sy_v97uht1r15mv4-fill" stroke="none" fill="#92bd39"><g><path d="M 38 22L 10 10L 10 46L 38 58L 38 22Z"></path></g></g></g><g id="g-root-2.cu_sy_mdku8x1r15nnt-fill" data-item-order="-60104" transform="translate(391, 219)"><g id="2.cu_sy_mdku8x1r15nnt-fill" stroke="none" fill="#3cc583"><g><path d="M 10 58L 38 46L 38 10L 10 22L 10 58Z"></path></g></g></g><g id="g-root-2.cu_1_sy_4mxau91r15mv6-fill" data-item-order="-60102" transform="translate(335, 231)"><g id="2.cu_1_sy_4mxau91r15mv6-fill" stroke="none" fill="#3cc583"><g><path d="M 66 10L 10 10L 10 46L 66 46L 66 10Z"></path></g></g></g><g id="g-root-2.cu_2_sy_1qckug11r15o8z-fill" data-item-order="-60100" transform="translate(307, 219)"><g id="2.cu_2_sy_1qckug11r15o8z-fill" stroke="none" fill="#3cc583"><g><path d="M 38 22L 10 10L 10 46L 38 58L 38 22Z"></path></g></g></g><g id="g-root-1.cu_sy_1hgxu751r15p1o-fill" data-item-order="-60096" transform="translate(391.000244140625, 147)"><g id="1.cu_sy_1hgxu751r15p1o-fill" stroke="none" fill="#1eabda"><g><path d="M 10 58L 38 46L 38 10L 10 22L 10 58Z"></path></g></g></g><g id="g-root-1.cu_1_sy_1d14c2p1r15ptx-fill" data-item-order="-60094" transform="translate(335.000244140625, 159)"><g id="1.cu_1_sy_1d14c2p1r15ptx-fill" stroke="none" fill="#1eabda"><g><path d="M 66 10L 10 10L 10 46L 66 46L 66 10Z"></path></g></g></g><g id="g-root-1.cu_2_sy_1463swx1r15ngu-fill" data-item-order="-60092" transform="translate(307.000244140625, 147)"><g id="1.cu_2_sy_1463swx1r15ngu-fill" stroke="none" fill="#1eabda"><g><path d="M 38 22L 10 10L 10 46L 38 58L 38 22Z"></path></g></g></g><g id="g-root-1.cu_3_sy_zqaash1r15o93-fill" data-item-order="-60090" transform="translate(307.0000305175781, 87)"><g id="1.cu_3_sy_zqaash1r15o93-fill" stroke="none" fill="#1eabda"><g><path d="M 38.000169 50L 94.000169 50L 121.999969 38C 121.999969 38 122.529969 10 66.000169 10C 9.470169 10 10.000169 38 10.000169 38L 38.000169 50Z"></path></g></g></g><g id="g-root-tx_emphasiz_8vvl0h1r171ty-fill" data-item-order="0" transform="translate(27, 333)"><g id="tx_emphasiz_8vvl0h1r171ty-fill" stroke="none" fill="#424736"><g><text style="font: 11.7px Roboto, sans-serif; white-space: pre;" font-size="11.7px" font-family="Roboto, sans-serif"><tspan x="12.08" y="28" dominant-baseline="ideographic">Emphasizes attractive and engaging </tspan><tspan x="102.75" y="42" dominant-baseline="ideographic">website aesthetics</tspan></text></g></g></g><g id="g-root-draw_4ot2qp1r12txf-fill" data-item-order="0" transform="translate(231, 285)"></g><g id="g-root-1_1hgy6u91r0rnyl-fill" data-item-order="0" transform="translate(447, 357)"></g><g id="g-root-tx_visualap_1ulj4m91r1737r-fill" data-item-order="0" transform="translate(87, 297)"><g id="tx_visualap_1ulj4m91r1737r-fill" stroke="none" fill="#424736"><g><text style="font: bold 20px Roboto, sans-serif; white-space: pre;" font-weight="bold" font-size="20px" font-family="Roboto, sans-serif"><tspan x="16.78" y="34" dominant-baseline="ideographic">Visual Appeal</tspan></text></g></g></g><g id="g-root-tx_focuseso_1q5pmht1r17400-fill" data-item-order="0" transform="translate(507, 261)"><g id="tx_focuseso_1q5pmht1r17400-fill" stroke="none" fill="#374840"><g><text style="font: 11.7px Roboto, sans-serif; white-space: pre;" font-size="11.7px" font-family="Roboto, sans-serif"><tspan x="12" y="28" dominant-baseline="ideographic">Focuses on creating intuitive user </tspan><tspan x="12" y="42" dominant-baseline="ideographic">experiences</tspan></text></g></g></g><g id="g-root-tx_html_mgp7oh1r15oud-fill" data-item-order="0" transform="translate(507, 369)"><g id="tx_html_mgp7oh1r15oud-fill" stroke="none" fill="#46432d"><g><text style="font: bold 20px Roboto, sans-serif; white-space: pre;" font-weight="bold" font-size="20px" font-family="Roboto, sans-serif"><tspan x="12" y="34" dominant-baseline="ideographic">HTML</tspan></text></g></g></g><g id="g-root-tx_provides_zs5q1t1r15n9g-fill" data-item-order="0" transform="translate(507, 405)"><g id="tx_provides_zs5q1t1r15n9g-fill" stroke="none" fill="#46432d"><g><text style="font: 11.7px Roboto, sans-serif; white-space: pre;" font-size="11.7px" font-family="Roboto, sans-serif"><tspan x="12" y="28" dominant-baseline="ideographic">Provides the structural foundation for </tspan><tspan x="12" y="42" dominant-baseline="ideographic">web pages</tspan></text></g></g></g><g id="g-root-tx_css_1hit9gh1r15o23-fill" data-item-order="0" transform="translate(171, 441)"><g id="tx_css_1hit9gh1r15o23-fill" stroke="none" fill="#4c4034"><g><text style="font: bold 20px Roboto, sans-serif; white-space: pre;" font-weight="bold" font-size="20px" font-family="Roboto, sans-serif"><tspan x="18.28" y="34" dominant-baseline="ideographic">CSS</tspan></text></g></g></g><g id="g-root-1_v63qjl1r100zy-fill" data-item-order="0" transform="translate(231, 429)"></g><g id="g-root-tx_userfrie_1cuvl7l1r172f5-fill" data-item-order="0" transform="translate(507, 225)"><g id="tx_userfrie_1cuvl7l1r172f5-fill" stroke="none" fill="#374840"><g><text style="font: bold 20px Roboto, sans-serif; white-space: pre;" font-weight="bold" font-size="20px" font-family="Roboto, sans-serif"><tspan x="12" y="34" dominant-baseline="ideographic">User-Friendliness</tspan></text></g></g></g><g id="g-root-voti_142zva91r0rnyj-fill" data-item-order="0" transform="translate(447, 213)"></g><g id="g-root-tx_ensuresw_13z8kyp1r1737u-fill" data-item-order="0" transform="translate(15, 189)"><g id="tx_ensuresw_13z8kyp1r1737u-fill" stroke="none" fill="#32444a"><g><text style="font: 11.7px Roboto, sans-serif; white-space: pre;" font-size="11.7px" font-family="Roboto, sans-serif"><tspan x="20.59" y="28" dominant-baseline="ideographic">Ensures websites function well on all </tspan><tspan x="172.41" y="42" dominant-baseline="ideographic">devices</tspan></text></g></g></g><g id="g-root-tx_managest_1utnaqp1r15pmy-fill" data-item-order="0" transform="translate(15, 477)"><g id="tx_managest_1utnaqp1r15pmy-fill" stroke="none" fill="#4c4034"><g><text style="font: 11.7px Roboto, sans-serif; white-space: pre;" font-size="11.7px" font-family="Roboto, sans-serif"><tspan x="16.93" y="28" dominant-baseline="ideographic">Manages the presentation and styling </tspan><tspan x="134.35" y="42" dominant-baseline="ideographic">of web content</tspan></text></g></g></g><g id="g-root-exch_v63wv51r1730p-fill" data-item-order="0" transform="translate(231, 141)"></g><g id="g-root-scri_8x4j6p1r17404-fill" data-item-order="0" transform="translate(447, 501)"></g><g id="g-root-tx_responsi_qoejoh1r171mz-fill" data-item-order="0" transform="translate(39, 153)"><g id="tx_responsi_qoejoh1r171mz-fill" stroke="none" fill="#32444a"><g><text style="font: bold 20px Roboto, sans-serif; white-space: pre;" font-weight="bold" font-size="20px" font-family="Roboto, sans-serif"><tspan x="17.02" y="34" dominant-baseline="ideographic">Responsive Design</tspan></text></g></g></g><g id="g-root-tx_javascri_93zr4x1r15o95-fill" data-item-order="0" transform="translate(507, 513)"><g id="tx_javascri_93zr4x1r15o95-fill" stroke="none" fill="#543a3a"><g><text style="font: bold 20px Roboto, sans-serif; white-space: pre;" font-weight="bold" font-size="20px" font-family="Roboto, sans-serif"><tspan x="12" y="34" dominant-baseline="ideographic">JavaScript</tspan></text></g></g></g><g id="g-root-tx_crafting_vktd1r0x823-fill" data-item-order="0" transform="translate(255, 39)"><g id="tx_crafting_vktd1r0x823-fill" stroke="none" fill="#484848"><g><text style="font: 20px Roboto, sans-serif; white-space: pre;" font-size="20px" font-family="Roboto, sans-serif"><tspan x="11.85" y="34" dominant-baseline="ideographic">Crafting Digital Success</tspan></text></g></g></g><g id="g-root-tx_addsinte_metsf51r15pu0-fill" data-item-order="0" transform="translate(507, 549)"><g id="tx_addsinte_metsf51r15pu0-fill" stroke="none" fill="#543a3a"><g><text style="font: 11.7px Roboto, sans-serif; white-space: pre;" font-size="11.7px" font-family="Roboto, sans-serif"><tspan x="12" y="28" dominant-baseline="ideographic">Adds interactivity and dynamic </tspan><tspan x="12" y="42" dominant-baseline="ideographic">features to websites</tspan></text></g></g></g><g id="g-root-0.cu_sy_8yzyg11r15o23-stroke" data-item-order="-60142" transform="translate(307, 207)"><g id="0.cu_sy_8yzyg11r15o23-stroke" fill="none" stroke-linecap="round" stroke-linejoin="round" stroke-miterlimit="4" stroke="#ffffff" stroke-width="2"><g><path d="M 54.78 406.78L 60.38 409.98L 61.98 405.18L 66 409.18L 70.02 405.18L 71.62 409.98L 77.22 406.78L 122 346L 94 358L 38 358L 10 346L 54.78 406.78ZM 94 298L 38 298L 10 310L 38 322L 94 322L 122 310L 94 298ZM 66 314.8C 54.95 314.8 46 312.65 46 310C 46 307.35 54.95 305.2 66 305.2C 77.05 305.2 86 307.35 86 310C 86 312.65 77.05 314.8 66 314.8ZM 94 226L 38 226L 10 238L 38 250L 94 250L 122 238L 94 226ZM 66 242.8C 54.95 242.8 46 240.65 46 238C 46 235.35 54.95 233.2 66 233.2C 77.05 233.2 86 235.35 86 238C 86 240.65 77.05 242.8 66 242.8ZM 94 154L 38 154L 10 166L 38 178L 94 178L 122 166L 94 154ZM 66 170.8C 54.95 170.8 46 168.65 46 166C 46 163.35 54.95 161.2 66 161.2C 77.05 161.2 86 163.35 86 166C 86 168.65 77.05 170.8 66 170.8ZM 94 82L 38 82L 10 94L 38 106L 94 106L 122 94L 94 82ZM 66 98.8C 54.95 98.8 46 96.65 46 94C 46 91.35 54.95 89.2 66 89.2C 77.05 89.2 86 91.35 86 94C 86 96.65 77.05 98.8 66 98.8ZM 94 10L 38 10L 10 22L 38 34L 94 34L 122 22L 94 10ZM 66 26.8C 54.95 26.8 46 24.65 46 22C 46 19.35 54.95 17.2 66 17.2C 77.05 17.2 86 19.35 86 22C 86 24.65 77.05 26.8 66 26.8Z"></path></g></g></g><g id="g-root-0.cu_1_sy_1uoni1t1r15pfw-stroke" data-item-order="-60140" transform="translate(307.000244140625, 115)"><g id="0.cu_1_sy_1uoni1t1r15pfw-stroke" fill="none" stroke-linecap="round" stroke-linejoin="round" stroke-miterlimit="4" stroke="#ffffff" stroke-width="2"><g><path d="M 54.779785 498.780176L 60.379785 501.980176L 61.979785 497.180176L 65.999785 501.180176L 70.019785 497.180176L 71.619785 501.980176L 77.219785 498.780176L 65.999785 514.000176L 54.779785 498.780176ZM 65.999756 406.800195C 77.045456 406.800195 85.999756 404.651195 85.999756 402.000195C 85.999756 399.349195 77.045456 397.200195 65.999756 397.200195C 54.954056 397.200195 45.999756 399.349195 45.999756 402.000195C 45.999756 404.651195 54.954056 406.800195 65.999756 406.800195ZM 65.999756 334.800195C 77.045456 334.800195 85.999756 332.651195 85.999756 330.000195C 85.999756 327.349195 77.045456 325.200195 65.999756 325.200195C 54.954056 325.200195 45.999756 327.349195 45.999756 330.000195C 45.999756 332.651195 54.954056 334.800195 65.999756 334.800195ZM 65.999756 262.800195C 77.045456 262.800195 85.999756 260.651195 85.999756 258.000195C 85.999756 255.349195 77.045456 253.200195 65.999756 253.200195C 54.954056 253.200195 45.999756 255.349195 45.999756 258.000195C 45.999756 260.651195 54.954056 262.800195 65.999756 262.800195ZM 65.999756 190.800195C 77.045456 190.800195 85.999756 188.651195 85.999756 186.000195C 85.999756 183.349195 77.045456 181.200195 65.999756 181.200195C 54.954056 181.200195 45.999756 183.349195 45.999756 186.000195C 45.999756 188.651195 54.954056 190.800195 65.999756 190.800195ZM 65.999756 118.800195C 77.045456 118.800195 85.999756 116.651195 85.999756 114.000195C 85.999756 111.349195 77.045456 109.200195 65.999756 109.200195C 54.954056 109.200195 45.999756 111.349195 45.999756 114.000195C 45.999756 116.651195 54.954056 118.800195 65.999756 118.800195ZM 10 34L 38 46L 94 46L 122 34L 122 42L 94 54L 38 54L 10 42L 10 34ZM 10 26L 38 38L 94 38L 122 26L 122 34L 94 46L 38 46L 10 34L 10 26ZM 10 26L 38 38L 94 38L 122 26L 122 10L 94 22L 38 22L 10 10L 10 26Z"></path></g></g></g><g id="g-root-6.cu_sy_1cxzyn51r15on9-stroke" data-item-order="-60136" transform="translate(391, 507)"><g id="6.cu_sy_1cxzyn51r15on9-stroke" fill="none" stroke-linecap="round" stroke-linejoin="round" stroke-miterlimit="4" stroke="#ffffff" stroke-width="2"><g><path d="M 10 58L 38 46L 38 10L 10 22L 10 58Z"></path></g></g></g><g id="g-root-6.cu_1_sy_zn5xcx1r15n2e-stroke" data-item-order="-60134" transform="translate(335, 519)"><g id="6.cu_1_sy_zn5xcx1r15n2e-stroke" fill="none" stroke-linecap="round" stroke-linejoin="round" stroke-miterlimit="4" stroke="#ffffff" stroke-width="2"><g><path d="M 66 10L 10 10L 10 46L 66 46L 66 10Z"></path></g></g></g><g id="g-root-6.cu_2_sy_qrix411r15nv3-stroke" data-item-order="-60132" transform="translate(307, 507)"><g id="6.cu_2_sy_qrix411r15nv3-stroke" fill="none" stroke-linecap="round" stroke-linejoin="round" stroke-miterlimit="4" stroke="#ffffff" stroke-width="2"><g><path d="M 38 22L 10 10L 10 46L 38 58L 38 22Z"></path></g></g></g><g id="g-root-5.cu_sy_mbpezl1r15onc-stroke" data-item-order="-60128" transform="translate(391, 435)"><g id="5.cu_sy_mbpezl1r15onc-stroke" fill="none" stroke-linecap="round" stroke-linejoin="round" stroke-miterlimit="4" stroke="#ffffff" stroke-width="2"><g><path d="M 10 58L 38 46L 38 10L 10 22L 10 58Z"></path></g></g></g><g id="g-root-5.cu_1_sy_hvvwv51r15pfl-stroke" data-item-order="-60126" transform="translate(335, 447)"><g id="5.cu_1_sy_hvvwv51r15pfl-stroke" fill="none" stroke-linecap="round" stroke-linejoin="round" stroke-miterlimit="4" stroke="#ffffff" stroke-width="2"><g><path d="M 66 10L 10 10L 10 46L 66 46L 66 10Z"></path></g></g></g><g id="g-root-5.cu_2_sy_4l1vkx1r15nuq-stroke" data-item-order="-60124" transform="translate(307, 435)"><g id="5.cu_2_sy_4l1vkx1r15nuq-stroke" fill="none" stroke-linecap="round" stroke-linejoin="round" stroke-miterlimit="4" stroke="#ffffff" stroke-width="2"><g><path d="M 38 22L 10 10L 10 46L 38 58L 38 22Z"></path></g></g></g><g id="g-root-4.cu_sy_1uqixb51r15ogb-stroke" data-item-order="-60120" transform="translate(391, 363)"><g id="4.cu_sy_1uqixb51r15ogb-stroke" fill="none" stroke-linecap="round" stroke-linejoin="round" stroke-miterlimit="4" stroke="#ffffff" stroke-width="2"><g><path d="M 10 58L 38 46L 38 10L 10 22L 10 58Z"></path></g></g></g><g id="g-root-4.cu_1_sy_1qapf6p1r15p8k-stroke" data-item-order="-60118" transform="translate(335, 375)"><g id="4.cu_1_sy_1qapf6p1r15p8k-stroke" fill="none" stroke-linecap="round" stroke-linejoin="round" stroke-miterlimit="4" stroke="#ffffff" stroke-width="2"><g><path d="M 66 10L 10 10L 10 46L 66 46L 66 10Z"></path></g></g></g><g id="g-root-4.cu_2_sy_1hfow0x1r15mvh-stroke" data-item-order="-60116" transform="translate(307, 363)"><g id="4.cu_2_sy_1hfow0x1r15mvh-stroke" fill="none" stroke-linecap="round" stroke-linejoin="round" stroke-miterlimit="4" stroke="#ffffff" stroke-width="2"><g><path d="M 38 22L 10 10L 10 46L 38 58L 38 22Z"></path></g></g></g><g id="g-root-3.cu_sy_1czvdwh1r15nnq-stroke" data-item-order="-60112" transform="translate(391, 291)"><g id="3.cu_sy_1czvdwh1r15nnq-stroke" fill="none" stroke-linecap="round" stroke-linejoin="round" stroke-miterlimit="4" stroke="#ffffff" stroke-width="2"><g><path d="M 10 58L 38 46L 38 10L 10 22L 10 58Z"></path></g></g></g><g id="g-root-3.cu_1_sy_1448dnl1r15ogf-stroke" data-item-order="-60110" transform="translate(335, 303)"><g id="3.cu_1_sy_1448dnl1r15ogf-stroke" fill="none" stroke-linecap="round" stroke-linejoin="round" stroke-miterlimit="4" stroke="#ffffff" stroke-width="2"><g><path d="M 66 10L 10 10L 10 46L 66 46L 66 10Z"></path></g></g></g><g id="g-root-3.cu_2_sy_v97uht1r15mv4-stroke" data-item-order="-60108" transform="translate(307, 291)"><g id="3.cu_2_sy_v97uht1r15mv4-stroke" fill="none" stroke-linecap="round" stroke-linejoin="round" stroke-miterlimit="4" stroke="#ffffff" stroke-width="2"><g><path d="M 38 22L 10 10L 10 46L 38 58L 38 22Z"></path></g></g></g><g id="g-root-2.cu_sy_mdku8x1r15nnt-stroke" data-item-order="-60104" transform="translate(391, 219)"><g id="2.cu_sy_mdku8x1r15nnt-stroke" fill="none" stroke-linecap="round" stroke-linejoin="round" stroke-miterlimit="4" stroke="#ffffff" stroke-width="2"><g><path d="M 10 58L 38 46L 38 10L 10 22L 10 58Z"></path></g></g></g><g id="g-root-2.cu_1_sy_4mxau91r15mv6-stroke" data-item-order="-60102" transform="translate(335, 231)"><g id="2.cu_1_sy_4mxau91r15mv6-stroke" fill="none" stroke-linecap="round" stroke-linejoin="round" stroke-miterlimit="4" stroke="#ffffff" stroke-width="2"><g><path d="M 66 10L 10 10L 10 46L 66 46L 66 10Z"></path></g></g></g><g id="g-root-2.cu_2_sy_1qckug11r15o8z-stroke" data-item-order="-60100" transform="translate(307, 219)"><g id="2.cu_2_sy_1qckug11r15o8z-stroke" fill="none" stroke-linecap="round" stroke-linejoin="round" stroke-miterlimit="4" stroke="#ffffff" stroke-width="2"><g><path d="M 38 22L 10 10L 10 46L 38 58L 38 22Z"></path></g></g></g><g id="g-root-1.cu_sy_1hgxu751r15p1o-stroke" data-item-order="-60096" transform="translate(391.000244140625, 147)"><g id="1.cu_sy_1hgxu751r15p1o-stroke" fill="none" stroke-linecap="round" stroke-linejoin="round" stroke-miterlimit="4" stroke="#ffffff" stroke-width="2"><g><path d="M 10 58L 38 46L 38 10L 10 22L 10 58Z"></path></g></g></g><g id="g-root-1.cu_1_sy_1d14c2p1r15ptx-stroke" data-item-order="-60094" transform="translate(335.000244140625, 159)"><g id="1.cu_1_sy_1d14c2p1r15ptx-stroke" fill="none" stroke-linecap="round" stroke-linejoin="round" stroke-miterlimit="4" stroke="#ffffff" stroke-width="2"><g><path d="M 66 10L 10 10L 10 46L 66 46L 66 10Z"></path></g></g></g><g id="g-root-1.cu_2_sy_1463swx1r15ngu-stroke" data-item-order="-60092" transform="translate(307.000244140625, 147)"><g id="1.cu_2_sy_1463swx1r15ngu-stroke" fill="none" stroke-linecap="round" stroke-linejoin="round" stroke-miterlimit="4" stroke="#ffffff" stroke-width="2"><g><path d="M 38 22L 10 10L 10 46L 38 58L 38 22Z"></path></g></g></g><g id="g-root-1.cu_3_sy_zqaash1r15o93-stroke" data-item-order="-60090" transform="translate(307.0000305175781, 87)"><g id="1.cu_3_sy_zqaash1r15o93-stroke" fill="none" stroke-linecap="round" stroke-linejoin="round" stroke-miterlimit="4" stroke="#ffffff" stroke-width="2"><g><path d="M 38.000169 50L 94.000169 50L 122.000169 38C 122.000169 38 122.530169 10 66.000169 10C 9.470169 10 10.000169 38 10.000169 38L 38.000169 50Z"></path></g></g></g><g id="g-root-tx_emphasiz_8vvl0h1r171ty-stroke" data-item-order="0" transform="translate(27, 333)"></g><g id="g-root-draw_4ot2qp1r12txf-stroke" data-item-order="0" transform="translate(231, 285)"><g id="draw_4ot2qp1r12txf-stroke" fill="none" stroke-linecap="round" stroke-linejoin="round" stroke-miterlimit="4" stroke="#92bd39" stroke-width="2"><g><path d="M 43.380001 52.34C 45.728004 53.1922 48.227676 53.546375 50.720001 53.380001C 52.720001 53.380001 57 42.900002 57 40.799999C 57 38.700001 54.900002 34.52 51.759998 34.52C 48.619999 34.52 43.380001 37.66 43.380001 37.66M 20.68 29.799999C 14.219999 32.580002 10.92 36.959999 11 42C 11.1 47.720001 16 53.040001 25.700001 53.060001M 46.560001 36C 44.071365 34.607094 41.141472 34.227425 38.379997 34.939999C 33.34 35.779999 31.379999 40.940002 28.379999 42.939999C 25.380001 44.939999 20.380001 45.939999 18.380001 41.940002C 16.380001 37.940002 22.6 33.799999 22.6 33.799999M 30 48C 30 48 25 56.360001 19.4 55.360001C 26.639999 60.139999 33.639999 53.360001 33.639999 53.360001C 33.578529 51.015476 32.156631 48.921692 30 48ZM 36.879997 42C 37.156143 42 37.379997 42.223858 37.379997 42.5M 36.379997 42.439999C 36.379997 42.163857 36.603859 41.940002 36.879997 41.940002M 36.879997 42.939999C 36.603859 42.939999 36.379997 42.716141 36.379997 42.439999M 37.379997 42.439999C 37.379997 42.716141 37.156143 42.939999 36.879997 42.939999M 18.42 25.119999L 24.42 37.34C 24.697124 38.181915 25.440819 38.784119 26.321959 38.880104C 27.2031 38.976089 28.05901 38.548134 28.510908 37.785629C 28.962805 37.023125 28.927259 36.066849 28.42 35.34L 22.779999 23.74M 23.6 22.639999C 25.279999 20 23.08 15.02 19.299999 13.7C 17.48819 13.058041 15.792756 12.12589 14.28 10.94C 13.439516 12.776661 12.97052 14.761395 12.9 16.779999C 12.9 19.939999 14 25.18 18.5 25.1C 20.547024 25.426243 22.581047 24.445126 23.6 22.639999ZM 13.16 19.619999C 14.32 19.779999 19.619999 20.26 22.139999 15.62M 34 30L 34 14C 34 13.447716 34.447716 13 35 13L 54 13C 54.552284 13 55 13.447716 55 14L 55 30M 38 28L 41.48 22.779999C 41.859978 22.335667 42.415352 22.079845 43 22.079845C 43.584648 22.079845 44.140022 22.335667 44.52 22.779999L 48 28M 48.880001 18C 49.156143 18 49.380001 18.223858 49.380001 18.5M 48.380001 18.439999C 48.410511 18.187517 48.625687 17.998163 48.880001 18M 48.880001 18.939999C 48.603859 18.939999 48.380001 18.716143 48.380001 18.439999M 49.380001 18.439999C 49.380001 18.716143 49.156143 18.939999 48.880001 18.939999"></path></g></g></g><g id="g-root-1_1hgy6u91r0rnyl-stroke" data-item-order="0" transform="translate(447, 357)"><g id="1_1hgy6u91r0rnyl-stroke" fill="none" stroke-linecap="round" stroke-linejoin="round" stroke-miterlimit="4" stroke="#e0cb15" stroke-width="2"><g><path d="M 21 33.007999L 21 49.007999M 13 49.007999L 13 33.007999M 13 41.007999L 21 41.007999M 37 49.007999L 37 33.007999L 41 41.007999L 45 33.007999L 45 49.007999M 49 33L 49 46C 49 47.656857 50.343147 49 52 49L 57 49M 25 33.007999L 33 33.007999M 29 33.007999L 29 49.007999M 57 55C 57 56.104568 56.104568 57 55 57L 13 57C 11.895431 57 11 56.104568 11 55M 11 27L 11 13C 11 11.895431 11.895431 11 13 11L 55 11C 56.104568 11 57 11.895431 57 13L 57 27"></path></g></g></g><g id="g-root-tx_visualap_1ulj4m91r1737r-stroke" data-item-order="0" transform="translate(87, 297)"></g><g id="g-root-tx_focuseso_1q5pmht1r17400-stroke" data-item-order="0" transform="translate(507, 261)"></g><g id="g-root-tx_html_mgp7oh1r15oud-stroke" data-item-order="0" transform="translate(507, 369)"></g><g id="g-root-tx_provides_zs5q1t1r15n9g-stroke" data-item-order="0" transform="translate(507, 405)"></g><g id="g-root-tx_css_1hit9gh1r15o23-stroke" data-item-order="0" transform="translate(171, 441)"></g><g id="g-root-1_v63qjl1r100zy-stroke" data-item-order="0" transform="translate(231, 429)"><g id="1_v63qjl1r100zy-stroke" fill="none" stroke-linecap="round" stroke-linejoin="round" stroke-miterlimit="4" stroke="#de8431" stroke-width="2"><g><path d="M 13 11.008L 55 11.008C 55 11.008 57 11.008 57 13.007999L 57 55.007999C 57 55.007999 57 57.007999 55 57.007999L 13 57.007999C 13 57.007999 11 57.007999 11 55.007999L 11 13.007999C 11 13.007999 11 11.008 13 11.008M 25 49C 20.581722 49 17 45.418278 17 41C 17 36.581722 20.581722 33 25 33M 49 33L 44.708 33C 42.988789 33.000622 41.495476 34.182915 41.100517 35.856148C 40.705551 37.529373 41.512539 39.254646 43.049999 40.024002L 46.950001 41.973999C 48.489811 42.742203 49.298763 44.46883 48.903545 46.143627C 48.508324 47.818424 47.012798 49.00124 45.292 49L 41 49M 37 33L 32.708 33C 30.988787 33.000622 29.495478 34.182915 29.100515 35.856148C 28.705553 37.529373 29.512537 39.254646 31.050001 40.024002L 34.950001 41.973999C 36.489807 42.742203 37.298763 44.46883 36.903542 46.143627C 36.508324 47.818424 35.012798 49.00124 33.292 49L 29 49"></path></g></g></g><g id="g-root-tx_userfrie_1cuvl7l1r172f5-stroke" data-item-order="0" transform="translate(507, 225)"></g><g id="g-root-voti_142zva91r0rnyj-stroke" data-item-order="0" transform="translate(447, 213)"><g id="voti_142zva91r0rnyj-stroke" fill="none" stroke-linecap="round" stroke-linejoin="round" stroke-miterlimit="4" stroke="#3cc583" stroke-width="2"><g><path d="M 28 31.006001C 28 29.90143 27.10457 29.006001 26 29.006001L 20 29.006001C 18.895432 29.006001 18 29.90143 18 31.006001M 33 31.007999C 33 29.903431 33.895432 29.007999 35 29.007999L 55 29.007999C 56.104568 29.007999 57 29.903431 57 31.007999L 57 36.007999C 57 37.112572 56.104568 38.007999 55 38.007999L 35 38.007999C 33.895432 38.007999 33 37.112572 33 36.007999L 33 31.007999ZM 18 17.006001C 18 15.90143 18.895432 15.006001 20 15.006001L 26 15.006001C 27.10457 15.006001 28 15.90143 28 17.006001L 28 22.006001C 28 23.110569 27.10457 24.006001 26 24.006001L 20 24.006001C 18.895432 24.006001 18 23.110569 18 22.006001L 18 17.006001ZM 33 17.004C 33 15.89943 33.895432 15.004 35 15.004L 55 15.004C 56.104568 15.004 57 15.89943 57 17.004L 57 22.004C 57 23.10857 56.104568 24.004 55 24.004L 35 24.004C 33.895432 24.004 33 23.10857 33 22.004L 33 17.004ZM 10 10M 38.134003 57L 38.334 54.754002C 38.607002 51.748859 36.605682 49.008499 33.66 48.354L 26.360001 46.73L 26.360001 37.049999C 26.360001 34.978935 24.681068 33.300003 22.610001 33.300003C 20.538933 33.300003 18.860001 34.978935 18.860001 37.050003L 18.860001 53.650002L 15.903999 51.431999C 14.683374 50.517773 12.976372 50.639645 11.898007 51.718006C 10.819642 52.796371 10.697771 54.503376 11.612 55.723999L 12.559999 56.987999"></path></g></g></g><g id="g-root-tx_ensuresw_13z8kyp1r1737u-stroke" data-item-order="0" transform="translate(15, 189)"></g><g id="g-root-tx_managest_1utnaqp1r15pmy-stroke" data-item-order="0" transform="translate(15, 477)"></g><g id="g-root-exch_v63wv51r1730p-stroke" data-item-order="0" transform="translate(231, 141)"><g id="exch_v63wv51r1730p-stroke" fill="none" stroke-linecap="round" stroke-linejoin="round" stroke-miterlimit="4" stroke="#1eabda" stroke-width="2"><g><path d="M 23 56L 27 52L 23 48M 12 27.958C 11.995503 29.623558 13.334539 30.98134 15 31L 33 31C 34.665001 30.980259 36.003407 29.623114 36 27.958L 36 16C 36 14.343145 34.656853 13 33 13L 15 13C 13.343145 13 12 14.343145 12 16ZM 12 25L 36 25M 19 35L 29 35M 24 31L 24 35M 38 33C 38 31.89543 38.895432 31 40 31L 52 31C 53.104568 31 54 31.89543 54 33L 54 55C 54 56.104568 53.104568 57 52 57L 40 57C 38.895432 57 38 56.104568 38 55ZM 15 42C 15 47.522846 19.477154 52 25 52L 27 52M 47 12L 43 16L 47 20M 55 26C 55 20.477154 50.52285 16 45 16L 43 16M 38 49L 54 49M 46 52.5C 45.723858 52.5 45.5 52.723858 45.5 53C 45.5 53.276142 45.723858 53.5 46 53.5C 46.276142 53.5 46.5 53.276142 46.5 53C 46.5 52.723858 46.276142 52.5 46 52.5L 46 52.5"></path></g></g></g><g id="g-root-scri_8x4j6p1r17404-stroke" data-item-order="0" transform="translate(447, 501)"><g id="scri_8x4j6p1r17404-stroke" fill="none" stroke-linecap="round" stroke-linejoin="round" stroke-miterlimit="4" stroke="#e55753" stroke-width="2"><g><path d="M 13 11L 55 11C 55 11 57 11 57 13L 57 55C 57 55 57 57 55 57L 13 57C 13 57 11 57 11 55L 11 13C 11 13 11 11 13 11M 41 46C 41 48.761425 43.238575 51 46 51C 48.761425 51 51 48.761425 51 46C 51 43.240002 49 42 46 41C 43 40 41 38.760002 41 36C 41 33.238579 43.238575 31 46 31C 48.761425 31 51 33.238579 51 36M 23 45C 23 48.313709 25.686291 51 29 51C 32.313709 51 35 48.313709 35 45L 35 31"></path></g></g></g><g id="g-root-tx_responsi_qoejoh1r171mz-stroke" data-item-order="0" transform="translate(39, 153)"></g><g id="g-root-tx_javascri_93zr4x1r15o95-stroke" data-item-order="0" transform="translate(507, 513)"></g><g id="g-root-tx_crafting_vktd1r0x823-stroke" data-item-order="0" transform="translate(255, 39)"></g><g id="g-root-tx_addsinte_metsf51r15pu0-stroke" data-item-order="0" transform="translate(507, 549)"></g></g></g></svg>