<?xml version="1.0" encoding="utf-8" standalone="yes"?>
<!DOCTYPE svg PUBLIC "-//W3C//DTD SVG 1.1//EN" "http://www.w3.org/Graphics/SVG/1.1/DTD/svg11.dtd">
<svg width="638" height="519" viewBox="0 0 638 519" style="fill:none;stroke:none;fill-rule:evenodd;clip-rule:evenodd;stroke-linecap:round;stroke-linejoin:round;stroke-miterlimit:1.5;" version="1.1" xmlns="http://www.w3.org/2000/svg" xmlns:xlink="http://www.w3.org/1999/xlink"><style id="fontImports">@import url("https://fonts.googleapis.com/css2?family=Roboto:wght@400;700&amp;display=block");</style><g id="items" style="isolation: isolate"><g id="blend" style="mix-blend-mode: normal"><g id="g-root--1.cu_sy_zrjv8g1u2x05j-fill" data-item-order="-116707" transform="translate(157.42523193359375, 154.00198364257812)"></g><g id="g-root-0.cu_sy_vbqd401u2x0xs-fill" data-item-order="-116704" transform="translate(255, 243.00003051757812)"><g id="0.cu_sy_vbqd401u2x0xs-fill" stroke="none" fill="#edf4ff"><g><path d="M 102.3346 39.636C 112.477 64.1213 100.8493 92.1925 76.364 102.3346C 51.8787 112.477 23.8075 100.8493 13.6654 76.364C 3.5232 51.8787 15.1507 23.8075 39.636 13.6654C 64.1213 3.5232 92.1925 15.1507 102.3346 39.636Z"></path></g></g></g><g id="g-root-6.cu_sy_i0wbts1u2wzcx-fill" data-item-order="-116700" transform="translate(201, 134.99996948242188)"><g id="6.cu_sy_i0wbts1u2wzcx-fill" stroke="none" fill="#ffebf7"><g><path d="M 56.1673 24.818008C 61.2384 37.060708 55.4247 51.096208 43.182 56.167308C 30.9393 61.238408 16.9038 55.424708 11.8327 43.182008C 6.7616 30.939308 12.5753 16.903808 24.818 11.832708C 37.0607 6.761608 51.0962 12.575308 56.1673 24.818008Z"></path></g></g></g><g id="g-root-5.cu_sy_959bkw1u2x05m-fill" data-item-order="-116696" transform="translate(123, 266.9999694824219)"><g id="5.cu_sy_959bkw1u2x05m-fill" stroke="none" fill="#faf0ff"><g><path d="M 24.818015 56.167315C 12.575315 51.096215 6.761615 37.060715 11.832715 24.818015C 16.903815 12.575315 30.939315 6.761615 43.182015 11.832715C 55.424715 16.903815 61.238415 30.939315 56.167315 43.182015C 51.096215 55.424715 37.060715 61.238415 24.818015 56.167315Z"></path></g></g></g><g id="g-root-4.cu_sy_4pftgg1u2x0xv-fill" data-item-order="-116692" transform="translate(201, 399.0000305175781)"><g id="4.cu_sy_4pftgg1u2x0xv-fill" stroke="none" fill="#f3f0ff"><g><path d="M 43.182 56.1673C 30.9393 61.2384 16.9038 55.4247 11.8327 43.182C 6.7616 30.9393 12.5753 16.9038 24.818 11.8327C 37.0607 6.7616 51.0962 12.5753 56.1673 24.818C 61.2384 37.0607 55.4247 51.0962 43.182 56.1673Z"></path></g></g></g><g id="g-root-3.cu_sy_1uljqw01u2ycy4-fill" data-item-order="-116688" transform="translate(357, 399.0000305175781)"><g id="3.cu_sy_1uljqw01u2ycy4-fill" stroke="none" fill="#e8f9ff"><g><path d="M 56.1673 43.182C 51.0962 55.4247 37.0607 61.2384 24.818 56.1673C 12.5753 51.0962 6.7616 37.0607 11.8327 24.818C 16.9038 12.5753 30.9393 6.7616 43.182 11.8327C 55.4247 16.9038 61.2384 30.9393 56.1673 43.182Z"></path></g></g></g><g id="g-root-2.cu_sy_1ha38io1u2yej1-fill" data-item-order="-116684" transform="translate(435, 267.0000305175781)"><g id="2.cu_sy_1ha38io1u2yej1-fill" stroke="none" fill="#f4ffdc"><g><path d="M 56.1673 24.818C 61.2384 37.0607 55.4247 51.0962 43.182 56.1673C 30.9393 61.2384 16.9038 55.4247 11.8327 43.182C 6.7616 30.9393 12.5753 16.9038 24.818 11.8327C 37.0607 6.7616 51.0962 12.5753 56.1673 24.818Z"></path></g></g></g><g id="g-root-1.cu_sy_1cu9qe81u2yfba-fill" data-item-order="-116680" transform="translate(357, 134.99996948242188)"><g id="1.cu_sy_1cu9qe81u2yfba-fill" stroke="none" fill="#e3fff2"><g><path d="M 24.818 56.167308C 12.5753 51.096208 6.7616 37.060708 11.8327 24.818008C 16.9038 12.575308 30.9393 6.761608 43.182 11.832708C 55.4247 16.903808 61.2384 30.939308 56.1673 43.182008C 51.0962 55.424708 37.0607 61.238408 24.818 56.167308Z"></path></g></g></g><g id="g-root-tx_studente_18hkv6o1u2yfwi-fill" data-item-order="0" transform="translate(417, 123.00003051757812)"><g id="tx_studente_18hkv6o1u2yfwi-fill" stroke="none" fill="#484848"><g><text style="font: 20px Roboto, sans-serif; white-space: pre;" font-size="20px" font-family="Roboto, sans-serif"><tspan x="12" y="34" dominant-baseline="ideographic">Student </tspan><tspan x="12" y="58" dominant-baseline="ideographic">Experience</tspan></text></g></g></g><g id="g-root-3_13z978g1u2ycy7-fill" data-item-order="0" transform="translate(213, 147.00003051757812)"></g><g id="g-root-4_v98q8w1u2rc3z-fill" data-item-order="0" transform="translate(369, 147.00003051757812)"></g><g id="g-root-tx_courseof_8yed401u2yej2-fill" data-item-order="0" transform="translate(15, 267.0000305175781)"><g id="tx_courseof_8yed401u2yej2-fill" stroke="none" fill="#484848"><g><text style="font: 20px Roboto, sans-serif; white-space: pre;" font-size="20px" font-family="Roboto, sans-serif"><tspan x="40.84" y="34" dominant-baseline="ideographic">Course </tspan><tspan x="21.72" y="58" dominant-baseline="ideographic">Offerings</tspan></text></g></g></g><g id="g-root-tx_communit_hu1dcw1u2ydqd-fill" data-item-order="0" transform="translate(69, 123.00003051757812)"><g id="tx_communit_hu1dcw1u2ydqd-fill" stroke="none" fill="#484848"><g><text style="font: 20px Roboto, sans-serif; white-space: pre;" font-size="20px" font-family="Roboto, sans-serif"><tspan x="25.55" y="34" dominant-baseline="ideographic">Community </tspan><tspan x="15.91" y="58" dominant-baseline="ideographic">Engagement</tspan></text></g></g></g><g id="g-root-code_147dgio1u2wzyl-fill" data-item-order="0" transform="translate(135, 279.0000305175781)"></g><g id="g-root-unic_18n74yo1u2ss9a-fill" data-item-order="0" transform="translate(279, 267.0000305175781)"></g><g id="g-root-stud_dgprkw1u2okr2-fill" data-item-order="0" transform="translate(447, 279.0000305175781)"></g><g id="g-root-tx_facultyi_1lt1dk01u2yebl-fill" data-item-order="0" transform="translate(495, 267.0000305175781)"><g id="tx_facultyi_1lt1dk01u2yebl-fill" stroke="none" fill="#484848"><g><text style="font: 20px Roboto, sans-serif; white-space: pre;" font-size="20px" font-family="Roboto, sans-serif"><tspan x="12" y="34" dominant-baseline="ideographic">Faculty </tspan><tspan x="12" y="58" dominant-baseline="ideographic">Interaction</tspan></text></g></g></g><g id="g-root-tx_informat_1uo1wps1u2yfwv-fill" data-item-order="0" transform="translate(81, 411.0000305175781)"><g id="tx_informat_1uo1wps1u2yfwv-fill" stroke="none" fill="#484848"><g><text style="font: 20px Roboto, sans-serif; white-space: pre;" font-size="20px" font-family="Roboto, sans-serif"><tspan x="12.09" y="34" dominant-baseline="ideographic">Information </tspan><tspan x="79.47" y="58" dominant-baseline="ideographic">Hub</tspan></text></g></g></g><g id="g-root-tx_prospect_1q8uvog1u2ydjc-fill" data-item-order="0" transform="translate(417, 411.0000305175781)"><g id="tx_prospect_1q8uvog1u2ydjc-fill" stroke="none" fill="#484848"><g><text style="font: 20px Roboto, sans-serif; white-space: pre;" font-size="20px" font-family="Roboto, sans-serif"><tspan x="12" y="34" dominant-baseline="ideographic">Prospective </tspan><tspan x="12" y="58" dominant-baseline="ideographic">Learners</tspan></text></g></g></g><g id="g-root-velo_htepy81u35dsf-fill" data-item-order="0" transform="translate(213, 411.0000305175781)"></g><g id="g-root-2_18egelc1u34172-fill" data-item-order="0" transform="translate(369, 411.0000305175781)"></g><g id="g-root-tx_universi_zmkc0w1u2ydjf-fill" data-item-order="0" transform="translate(141, 39)"><g id="tx_universi_zmkc0w1u2ydjf-fill" stroke="none" fill="#484848"><g><text style="font: 20px Roboto, sans-serif; white-space: pre;" font-size="20px" font-family="Roboto, sans-serif"><tspan x="13.29" y="34" dominant-baseline="ideographic">University Coding Website Overview</tspan></text></g></g></g><g id="g-root--1.cu_sy_zrjv8g1u2x05j-stroke" data-item-order="-116707" transform="translate(157.42523193359375, 154.00198364257812)"><g id="-1.cu_sy_zrjv8g1u2x05j-stroke" fill="none" stroke-linecap="round" stroke-linejoin="round" stroke-miterlimit="4" stroke="#969696" stroke-width="2" stroke-dasharray="5.0, 7.0"><g><path d="M 301.1492 125.386947C 278.596 102.928547 221.9224 86.998047 155.5748 86.998047C 89.2272 86.998047 32.5535 102.928547 10.0003 125.386947M 301.1496 168.608847C 278.5966 191.067447 221.9227 206.998047 155.5748 206.998047C 89.2268 206.998047 32.553 191.067447 10 168.608847M 210.102997 10C 179.338597 18.0158 136.951797 59.254 103.613297 116.9979C 71.372697 172.8403 56.731597 228.2929 63.435897 259.6058M 247.713197 34.3878C 254.418697 65.7003 239.777697 121.1542 207.536297 176.9979C 174.196997 234.7433 131.808897 275.9821 101.044297 283.9964M 210.105197 283.9965C 179.340597 275.982 136.952497 234.7433 103.613197 176.998C 71.371897 121.1543 56.730997 65.7005 63.436397 34.388M 101.046397 10C 131.810797 18.0157 174.197797 59.2539 207.536297 116.998C 239.776997 172.8404 254.417897 228.293 247.713597 259.6059"></path></g></g></g><g id="g-root-0.cu_sy_vbqd401u2x0xs-stroke" data-item-order="-116704" transform="translate(255, 243.00003051757812)"><g id="0.cu_sy_vbqd401u2x0xs-stroke" fill="none" stroke-linecap="round" stroke-linejoin="round" stroke-miterlimit="4" stroke="#4e88e7" stroke-width="2"><g><path d="M 102.3346 39.636C 112.4768 64.1213 100.8493 92.1925 76.364 102.3346C 51.8787 112.4768 23.8075 100.8493 13.6654 76.364C 3.5232 51.8787 15.1507 23.8075 39.636 13.6654C 64.1213 3.5232 92.1925 15.1507 102.3346 39.636Z"></path></g></g></g><g id="g-root-6.cu_sy_i0wbts1u2wzcx-stroke" data-item-order="-116700" transform="translate(201, 134.99996948242188)"><g id="6.cu_sy_i0wbts1u2wzcx-stroke" fill="none" stroke-linecap="round" stroke-linejoin="round" stroke-miterlimit="4" stroke="#de58a9" stroke-width="2"><g><path d="M 56.1673 24.818008C 61.2384 37.060708 55.4247 51.096208 43.182 56.167308C 30.9393 61.238408 16.9038 55.424708 11.8327 43.182008C 6.7616 30.939308 12.5753 16.903808 24.818 11.832708C 37.0607 6.761608 51.0962 12.575308 56.1673 24.818008Z"></path></g></g></g><g id="g-root-5.cu_sy_959bkw1u2x05m-stroke" data-item-order="-116696" transform="translate(123, 266.9999694824219)"><g id="5.cu_sy_959bkw1u2x05m-stroke" fill="none" stroke-linecap="round" stroke-linejoin="round" stroke-miterlimit="4" stroke="#ba5de5" stroke-width="2"><g><path d="M 24.818015 56.167315C 12.575315 51.096215 6.761615 37.060715 11.832715 24.818015C 16.903815 12.575315 30.939315 6.761615 43.182015 11.832715C 55.424715 16.903815 61.238415 30.939315 56.167315 43.182015C 51.096215 55.424715 37.060715 61.238415 24.818015 56.167315Z"></path></g></g></g><g id="g-root-4.cu_sy_4pftgg1u2x0xv-stroke" data-item-order="-116692" transform="translate(201, 399.0000305175781)"><g id="4.cu_sy_4pftgg1u2x0xv-stroke" fill="none" stroke-linecap="round" stroke-linejoin="round" stroke-miterlimit="4" stroke="#7f64ea" stroke-width="2"><g><path d="M 43.182 56.1673C 30.9393 61.2384 16.9038 55.4247 11.8327 43.182C 6.7616 30.9393 12.5753 16.9038 24.818 11.8327C 37.0607 6.7616 51.0962 12.5753 56.1673 24.818C 61.2384 37.0607 55.4247 51.0962 43.182 56.1673Z"></path></g></g></g><g id="g-root-3.cu_sy_1uljqw01u2ycy4-stroke" data-item-order="-116688" transform="translate(357, 399.0000305175781)"><g id="3.cu_sy_1uljqw01u2ycy4-stroke" fill="none" stroke-linecap="round" stroke-linejoin="round" stroke-miterlimit="4" stroke="#1eabda" stroke-width="2"><g><path d="M 56.1673 43.182C 51.0962 55.4247 37.0607 61.2384 24.818 56.1673C 12.5753 51.0962 6.7616 37.0607 11.8327 24.818C 16.9038 12.5753 30.9393 6.7616 43.182 11.8327C 55.4247 16.9038 61.2384 30.9393 56.1673 43.182Z"></path></g></g></g><g id="g-root-2.cu_sy_1ha38io1u2yej1-stroke" data-item-order="-116684" transform="translate(435, 267.0000305175781)"><g id="2.cu_sy_1ha38io1u2yej1-stroke" fill="none" stroke-linecap="round" stroke-linejoin="round" stroke-miterlimit="4" stroke="#92bd39" stroke-width="2"><g><path d="M 56.1673 24.818C 61.2384 37.0607 55.4247 51.0962 43.182 56.1673C 30.9393 61.2384 16.9038 55.4247 11.8327 43.182C 6.7616 30.9393 12.5753 16.9038 24.818 11.8327C 37.0607 6.7616 51.0962 12.5753 56.1673 24.818Z"></path></g></g></g><g id="g-root-1.cu_sy_1cu9qe81u2yfba-stroke" data-item-order="-116680" transform="translate(357, 134.99996948242188)"><g id="1.cu_sy_1cu9qe81u2yfba-stroke" fill="none" stroke-linecap="round" stroke-linejoin="round" stroke-miterlimit="4" stroke="#3cc583" stroke-width="2"><g><path d="M 24.818 56.167308C 12.5753 51.096208 6.7616 37.060708 11.8327 24.818008C 16.9038 12.575308 30.9393 6.761608 43.182 11.832708C 55.4247 16.903808 61.2384 30.939308 56.1673 43.182008C 51.0962 55.424708 37.0607 61.238408 24.818 56.167308Z"></path></g></g></g><g id="g-root-tx_studente_18hkv6o1u2yfwi-stroke" data-item-order="0" transform="translate(417, 123.00003051757812)"></g><g id="g-root-3_13z978g1u2ycy7-stroke" data-item-order="0" transform="translate(213, 147.00003051757812)"><g id="3_13z978g1u2ycy7-stroke" fill="none" stroke-linecap="round" stroke-linejoin="round" stroke-miterlimit="4" stroke="#de58a9" stroke-width="2"><g><path d="M 15.5 18.5C 15.5 19.052285 15.947715 19.5 16.5 19.5L 18.5 19.5L 21.5 22.5L 21.5 19.5L 29.5 19.5C 30.052285 19.5 30.5 19.052285 30.5 18.5L 30.5 11.5C 30.5 10.947715 30.052285 10.5 29.5 10.5L 16.5 10.5C 15.947715 10.5 15.5 10.947715 15.5 11.5ZM 12.75 24.75C 12.75 25.992641 13.757359 27 15 27C 16.242641 27 17.25 25.992641 17.25 24.75C 17.25 23.507359 16.242641 22.5 15 22.5C 13.757359 22.5 12.75 23.507359 12.75 24.75M 18.17 29.27C 16.976294 28.141269 15.273849 27.729624 13.696319 28.18828C 12.118789 28.646936 10.902439 29.907201 10.5 31.5M 26.75 24.75C 26.75 25.992641 27.757359 27 29 27C 30.242641 27 31.25 25.992641 31.25 24.75C 31.25 23.507359 30.242641 22.5 29 22.5C 27.757359 22.5 26.75 23.507359 26.75 24.75M 25.83 29.27C 27.023706 28.141269 28.726152 27.729624 30.303682 28.18828C 31.881212 28.646936 33.097561 29.907201 33.5 31.5M 19.75 26.75C 19.75 27.992641 20.757359 29 22 29C 23.242641 29 24.25 27.992641 24.25 26.75C 24.25 25.507359 23.242641 24.5 22 24.5C 20.757359 24.5 19.75 25.507359 19.75 26.75M 26.5 33.5C 25.966657 31.451372 24.116917 30.021538 22 30.021538C 19.883084 30.021538 18.033344 31.451372 17.5 33.500001M 26 13L 28 15L 26 17M 20 13L 18 15L 20 17M 24 13L 22 17"></path></g></g></g><g id="g-root-4_v98q8w1u2rc3z-stroke" data-item-order="0" transform="translate(369, 147.00003051757812)"><g id="4_v98q8w1u2rc3z-stroke" fill="none" stroke-linecap="round" stroke-linejoin="round" stroke-miterlimit="4" stroke="#3cc583" stroke-width="2"><g><path d="M 15 33.485L 29 33.485M 21.5 31.485L 21.5 33.485M 10.5 27.485L 33.5 27.485M 32 13.485C 32.828428 13.485 33.500001 14.156573 33.500001 14.985L 33.5 29.985C 33.500001 30.813428 32.828428 31.485001 32.000001 31.485001L 12 31.485C 11.171573 31.485001 10.5 30.813428 10.5 29.985001L 10.5 14.985C 10.5 14.156573 11.171573 13.485 12 13.485M 18.818 17.692L 18.818 19.2C 18.818 21.030271 20.301728 22.514 22.132 22.514C 23.962271 22.514 25.446 21.030271 25.446 19.2L 25.446 17.692M 25.446 14.622L 25.446 17.692L 22.043 18.789L 18.818 17.692L 18.818 14.688M 29.219999 13.206L 22.043 10.515L 14.866 13.206L 22.043 15.898L 29.219999 13.206ZM 14.866 13.206L 14.866 16.795M 14.899 16.82L 13.399 19.82L 16.399 19.82L 14.899 16.82ZM 25.311 25.547C 23.479974 24.019931 20.822886 24.006927 18.977 25.516"></path></g></g></g><g id="g-root-tx_courseof_8yed401u2yej2-stroke" data-item-order="0" transform="translate(15, 267.0000305175781)"></g><g id="g-root-tx_communit_hu1dcw1u2ydqd-stroke" data-item-order="0" transform="translate(69, 123.00003051757812)"></g><g id="g-root-code_147dgio1u2wzyl-stroke" data-item-order="0" transform="translate(135, 279.0000305175781)"><g id="code_147dgio1u2wzyl-stroke" fill="none" stroke-linecap="round" stroke-linejoin="round" stroke-miterlimit="4" stroke="#ba5de5" stroke-width="2"><g><path d="M 10 10M 17.09991 15.79999L 14.59991 18.39999L 17.09991 21.1M 10 10M 24.9999 15.79999L 27.4999 18.39999L 24.9999 21.1M 19.69995 21.9L 22.4 14.89999M 28.25 26.45C 28.25 26.45 27.75 25.05 23.95 24.85C 23.55 24.85 23.25 25.05 23.25 25.35L 23.25 31.15C 23.25 31.45 23.55 31.65 23.85 31.65C 27.75 31.75 28.25 33.25 28.25 33.25L 28.25 26.45ZM 28.25 26.45C 28.25 26.45 28.75 25.05 32.55 24.85C 32.95 24.85 33.25 25.05 33.25 25.35L 33.25 31.15C 33.25 31.45 32.95 31.65 32.65 31.65C 28.75 31.75 28.25 33.25 28.25 33.25M 31.35 22.15L 31.35 12.15C 31.35 11.35 30.75 10.75 29.95 10.75L 12.14998 10.75C 11.34998 10.75 10.749985 11.35 10.749985 12.15L 10.749985 25.85C 10.749985 26.65 11.34998 27.25 12.14998 27.25L 19.94995 27.25M 10 10M 18.64996 27.25L 17.94997 31.25M 19.69995 31.25L 16.94998 31.25"></path></g></g></g><g id="g-root-unic_18n74yo1u2ss9a-stroke" data-item-order="0" transform="translate(279, 267.0000305175781)"><g id="unic_18n74yo1u2ss9a-stroke" fill="none" stroke-linecap="round" stroke-linejoin="round" stroke-miterlimit="4" stroke="#4e88e7" stroke-width="2"><g><path d="M 11 11L 57 11L 57 57L 11 57ZM 46 24C 46 25.104568 46.895432 26 48 26C 49.104568 26 50 25.104568 50 24C 50 22.895432 49.104568 22 48 22C 46.895432 22 46 22.895432 46 24M 18 24L 18 38C 18 42.418278 21.581722 46 26 46C 30.418278 46 34 42.418278 34 38L 34 24L 48 46L 48 30"></path></g></g></g><g id="g-root-stud_dgprkw1u2okr2-stroke" data-item-order="0" transform="translate(447, 279.0000305175781)"><g id="stud_dgprkw1u2okr2-stroke" fill="none" stroke-linecap="round" stroke-linejoin="round" stroke-miterlimit="4" stroke="#92bd39" stroke-width="2"><g><path d="M 21.3 17.79996C 20.085 17.79996 19.10001 16.81499 19.10001 15.59996C 19.10001 14.38494 20.085 13.39996 21.3 13.39996C 22.515 13.39996 23.5 14.38494 23.5 15.59996C 23.5 16.81499 22.515 17.79996 21.3 17.79996ZM 17.89996 22.3C 17.89996 20.4 19.39996 18.89996 21.3 18.89996C 23.2 18.89996 24.7 20.4 24.7 22.3M 28.25 26.45C 28.25 26.45 27.75 25.05 23.95 24.85C 23.55 24.85 23.25 25.05 23.25 25.35L 23.25 31.15C 23.25 31.45 23.55 31.65 23.85 31.65C 27.75 31.75 28.25 33.25 28.25 33.25L 28.25 26.45ZM 28.25 26.45C 28.25 26.45 28.75 25.05 32.55 24.85C 32.95 24.85 33.25 25.05 33.25 25.35L 33.25 31.15C 33.25 31.45 32.95 31.65 32.65 31.65C 28.75 31.75 28.25 33.25 28.25 33.25M 31.35 22.15L 31.35 12.15C 31.35 11.35 30.75 10.75 29.95 10.75L 12.14998 10.75C 11.34998 10.75 10.749985 11.35 10.749985 12.15L 10.749985 25.85C 10.749985 26.65 11.34998 27.25 12.14998 27.25L 19.94995 27.25M 10 10M 18.6499 27.25L 17.94991 31.25M 19.69995 31.25L 16.94998 31.25"></path></g></g></g><g id="g-root-tx_facultyi_1lt1dk01u2yebl-stroke" data-item-order="0" transform="translate(495, 267.0000305175781)"></g><g id="g-root-tx_informat_1uo1wps1u2yfwv-stroke" data-item-order="0" transform="translate(81, 411.0000305175781)"></g><g id="g-root-tx_prospect_1q8uvog1u2ydjc-stroke" data-item-order="0" transform="translate(417, 411.0000305175781)"></g><g id="g-root-velo_htepy81u35dsf-stroke" data-item-order="0" transform="translate(213, 411.0000305175781)"><g id="velo_htepy81u35dsf-stroke" fill="none" stroke-linecap="round" stroke-linejoin="round" stroke-miterlimit="4" stroke="#7f64ea" stroke-width="2"><g><path d="M 29.5 15.25C 31.571 15.25 33.25 14.243 33.25 13C 33.25 11.757 31.571 10.75 29.5 10.75C 27.429 10.75 25.75 11.757 25.75 13C 25.75 14.243 27.429 15.25 29.5 15.25ZM 25.75 13L 25.75 17.5C 25.75 18.742 27.429 19.75 29.5 19.75C 31.571 19.75 33.25 18.742 33.25 17.5L 33.25 13M 29.5 28.75C 31.571 28.75 33.25 27.743 33.25 26.5C 33.25 25.257 31.571 24.25 29.5 24.25C 27.429 24.25 25.75 25.257 25.75 26.5C 25.75 27.743 27.429 28.75 29.5 28.75ZM 25.75 26.5L 25.75 31C 25.75 32.242 27.429 33.25 29.5 33.25C 31.571 33.25 33.25 32.242 33.25 31L 33.25 26.5M 17.125 28.375C 20.645815 28.375001 23.5 25.520816 23.5 22.000001C 23.5 18.479185 20.645815 15.625001 17.125 15.625001C 13.604185 15.625001 10.75 18.479185 10.75 22C 10.75 25.520816 13.604185 28.375001 17.125 28.375001ZM 11.07 24L 23 24M 11.07 20L 23 20M 15.75 15.774C 14.605784 19.902438 14.774234 24.284583 16.232 28.313M 18.5 15.774C 18.999822 17.570657 19.25215 19.427115 19.25 21.292C 19.25378 23.686084 18.838166 26.062326 18.022 28.312999M 20 13L 20 11.5L 23 11.5M 20 31L 20 32.5L 23 32.5"></path></g></g></g><g id="g-root-2_18egelc1u34172-stroke" data-item-order="0" transform="translate(369, 411.0000305175781)"><g id="2_18egelc1u34172-stroke" fill="none" stroke-linecap="round" stroke-linejoin="round" stroke-miterlimit="4" stroke="#1eabda" stroke-width="2"><g><path d="M 11.532 23.443C 11.531801 24.583056 12.455943 25.50736 13.596 25.50736C 14.736056 25.50736 15.660199 24.583056 15.66 23.442999C 15.660199 22.302943 14.736056 21.378639 13.596 21.378639C 12.455943 21.378639 11.531801 22.302943 11.532 23.442999M 15.465 27.425C 14.527354 26.718798 13.271255 26.602774 12.220116 27.125273C 11.168977 27.647773 10.503118 28.719164 10.5 29.892999M 28.34 23.443C 28.3398 24.583056 29.263942 25.50736 30.403999 25.50736C 31.544055 25.50736 32.468198 24.583056 32.467998 23.442999C 32.468198 22.302943 31.544055 21.378639 30.403999 21.378639C 29.263942 21.378639 28.3398 22.302943 28.339999 23.442999M 28.509 27.445C 29.443785 26.725383 30.705992 26.598701 31.765141 27.118196C 32.82429 27.63769 33.496788 28.713312 33.499999 29.892999M 25.549 15.812L 25.549 18.929L 21.987 20.017L 18.424 18.929L 18.424 15.812M 29.112 14.476L 21.987 11.804L 14.862 14.476L 21.987 17.148L 29.112 14.476ZM 14.862 14.476L 14.862 18.038M 18.624 18.99L 18.624 20.458C 18.603206 21.654442 19.229596 22.769006 20.262418 23.37331C 21.295239 23.977614 22.573762 23.977614 23.606583 23.37331C 24.639405 22.769006 25.265795 21.654442 25.245001 20.458L 25.245 19.022M 16.148 32.2C 16.148 28.97521 18.76221 26.361001 21.987001 26.361001C 25.211791 26.361001 27.826001 28.97521 27.826001 32.200001M 19.001 27.177999L 21.987 30.500999L 24.973 27.177999"></path></g></g></g><g id="g-root-tx_universi_zmkc0w1u2ydjf-stroke" data-item-order="0" transform="translate(141, 39)"></g></g></g></svg>