<?xml version="1.0" encoding="utf-8" standalone="yes"?>
<!DOCTYPE svg PUBLIC "-//W3C//DTD SVG 1.1//EN" "http://www.w3.org/Graphics/SVG/1.1/DTD/svg11.dtd">
<svg width="602" height="420" viewBox="0 0 602 420" style="fill:none;stroke:none;fill-rule:evenodd;clip-rule:evenodd;stroke-linecap:round;stroke-linejoin:round;stroke-miterlimit:1.5;" version="1.1" xmlns="http://www.w3.org/2000/svg" xmlns:xlink="http://www.w3.org/1999/xlink"><style id="fontImports">@import url("https://fonts.googleapis.com/css2?family=Roboto:wght@400;700&amp;display=block");</style><rect id="" x="0" y="0" width="602" height="419.095" style="fill: #2c2c2c;"></rect><g id="items" style="isolation: isolate"><g id="blend" style="mix-blend-mode: normal"><g id="g-root-tf_8vvur8wrx43p-fill" data-item-order="-250257" transform="translate(-9, -9)"><g id="tf_8vvur8wrx43p-fill" stroke="none" fill="#2c2c2c"><g><path d="M 10 10L 610 10L 610 427.1L 10 427.1Z"></path></g></g></g><g id="g-root--1.cu_sy_djtcokws1a8d-fill" data-item-order="-44000" transform="translate(212.26953125, 99.16561889648438)"><g id="-1.cu_sy_djtcokws1a8d-fill" stroke="none" fill="#ababab"><g><path d="M 15.0326 206.541496C 15.9629 207.112496 17.0468 207.444496 18.1904 207.444496L 19.2095 207.444496C 24.2441 213.857896 30.6852 219.848896 37.1417 224.982996L 29.3103 225.260696C 25.9806 225.393796 23.41 228.208396 23.41 231.542096L 23.41 232.952696C 23.5432 236.279696 26.3668 238.848196 29.6965 238.721796L 55.9034 237.809096C 61.4301 241.013396 67.2932 243.994396 73.3864 246.876096L 63.9578 270.929496C 46.3568 262.748596 28.2306 251.796196 14.9511 237.223296C 7.5094 227.592896 9.223 216.307196 15.0326 206.541496ZM 15.133342 110.003595C 7.076442 99.577095 9.706442 87.063395 16.752242 76.799995C 16.204642 77.617195 15.449042 78.809795 14.959442 79.650695C 16.476142 80.525295 17.443242 80.525295 18.546742 80.525295L 19.731442 80.525295C 24.773642 86.939095 30.927942 92.932695 37.386942 98.064495L 29.285442 98.344695C 25.955642 98.477795 23.385142 101.292395 23.385142 104.626095L 23.385142 106.036695C 23.518342 109.363695 26.341942 111.932195 29.671642 111.805795L 56.162042 110.888195C 66.137742 116.666395 77.207042 121.322595 88.745842 126.378595L 89.077642 126.525195L 88.745842 126.670595C 82.647342 129.367795 77.285442 131.582795 73.204342 133.245495C 68.085642 135.395195 62.839142 137.775895 57.604942 140.409495C 42.141042 132.628695 26.768942 122.772395 15.133342 110.003595ZM 135.705342 179.499995L 148.087342 180.001995C 151.296342 180.127995 153.910342 177.729995 154.036342 174.522595L 154.036342 173.244995C 154.036342 170.037795 151.606342 167.349595 148.396342 167.216495L 113.666342 165.834295C 105.899842 161.787995 97.618842 158.040095 89.076842 154.294295C 95.038242 151.663195 100.277342 149.498795 104.284442 147.866195C 109.592042 145.637095 115.037342 143.159795 120.463342 140.409495C 135.730342 148.147695 150.600342 157.992395 162.091342 170.601695C 170.190342 181.083995 167.316342 193.588995 160.247342 203.898995C 160.242342 203.890995 160.236342 203.882995 160.230342 203.874995C 160.236342 203.865995 160.242342 203.857995 160.247342 203.849995C 161.783342 201.609995 163.115342 199.268995 164.176342 196.869995C 163.097342 195.026995 161.468342 193.748995 159.234342 193.748995L 152.217342 193.748995C 147.118342 188.480995 141.266342 183.607995 135.705342 179.499995ZM 113.692421 38.8982L 148.396221 40.2793C 151.606021 40.4124 154.036721 43.1006 154.036721 46.3078L 154.036721 47.5854C 153.910221 50.7926 151.346321 53.2214 148.136521 53.0949L 135.788021 52.6035C 141.347621 56.7126 147.133121 61.5442 152.229621 66.8122L 159.234321 66.8122C 161.474821 66.8122 163.659221 68.2291 164.735421 70.0804C 168.548821 61.6721 169.111421 51.826 162.340421 43.3864C 149.060921 28.8136 130.934721 18.181 113.333621 10L 103.905121 34.0534C 107.242421 35.6318 110.510621 37.2399 113.692421 38.8982Z"></path></g></g></g><g id="g-root-4.cu_sy_8cub8ws1bta-fill" data-item-order="-43996" transform="translate(291.013916015625, 253.9658203125)"><g id="4.cu_sy_8cub8ws1bta-fill" stroke="none" fill="#1ac3fb"><g><path d="M 69.652 12.374C 72.8619 12.5071 75.2926 15.1953 75.2926 18.4026L 75.2926 19.6801C 75.1661 22.8874 72.6022 25.3161 69.3923 25.1897L 10.000004 22.8259L 10.000004 10L 69.652 12.374ZM 78.8627 52.6209C 79.8051 51.4275 80.6989 50.2193 81.5354 48.9991C 83.0713 46.7592 84.5356 44.1467 85.5964 41.7473C 84.6143 40.2268 82.6713 38.9458 80.4375 38.9458L 10.000004 38.9069L 10.000004 52.6209L 78.8627 52.6209ZM 65.3074 66.4553L 10.000004 68.3809L 10 81.852L 45.9823 80.5926C 51.7414 77.0178 58.6982 72.1444 65.3074 66.4553Z"></path></g></g></g><g id="g-root-3.cu_sy_1lymv04ws1a1b-fill" data-item-order="-43992" transform="translate(217.3424072265625, 253.16552734375)"><g id="3.cu_sy_1lymv04ws1a1b-fill" stroke="none" fill="#f79438"><g><path d="M 10.000007 52.6336C 10.898631 53.1539 12.103431 53.454 13.190731 53.454L 83.680831 53.454L 83.680831 39.74L 20.284231 39.74C 17.073131 43.0393 14.074831 46.5121 11.623231 50.0879C 11.050431 50.9232 10.512531 51.7724 10.000007 52.6336ZM 41.933131 21.9974L 83.680831 23.659L 83.680831 10.8331L 62.747331 10C 58.077931 12.3271 53.572131 14.7402 49.281431 17.2997C 47.030131 18.6465 44.544531 20.2237 41.933131 21.9974ZM 18.321731 77.5515C 18.321731 74.2178 20.892231 71.4032 24.222031 71.2701L 83.680831 69.214L 83.680831 82.6851L 24.608231 84.7312C 21.278531 84.8576 18.454931 82.2892 18.321731 78.9621L 18.321731 77.5515Z"></path></g></g></g><g id="g-root-2.cu_sy_147zblgws198o-fill" data-item-order="-43988" transform="translate(291.01373291015625, 127.07073974609375)"><g id="2.cu_sy_147zblgws198o-fill" stroke="none" fill="#ffe711"><g><path d="M 69.652 12.374C 72.8619 12.5071 75.2926 15.1953 75.2926 18.4026L 75.2926 19.6801C 75.1661 22.8874 72.6022 25.3161 69.3923 25.1897L 10.000005 22.8259L 10.000005 10L 69.652 12.374ZM 79.467 52.6209C 80.3141 51.5352 81.1207 50.4377 81.88 49.3302C 83.4557 47.0322 84.8166 44.6281 85.8905 42.1635C 84.8338 40.2434 82.7819 38.9069 80.4902 38.9069L 10.000005 38.9069L 10.000005 52.6209L 79.467 52.6209ZM 66.0837 66.4415L 10.000005 68.3809L 10 81.852L 46.9214 80.5732C 52.6853 76.9594 59.5694 72.0937 66.0837 66.4415Z"></path></g></g></g><g id="g-root-1.cu_sy_qwit84ws1atl-fill" data-item-order="-43984" transform="translate(217.225830078125, 126.21466064453125)"><g id="1.cu_sy_qwit84ws1atl-fill" stroke="none" fill="#43dd93"><g><path d="M 20.0608 39.7625C 16.9982 42.9437 14.1971 46.2553 11.843 49.6887C 11.1882 50.6438 10.5755 51.6202 9.999992 52.6087C 10.9079 53.1433 12.006 53.4765 13.1095 53.4765L 83.7879 53.4765L 83.7879 39.7625L 20.0608 39.7625ZM 41.4923 22.0049L 83.7879 23.6815L 83.7879 10.8556L 62.1184 10C 59.1294 11.5014 56.209 13.0397 53.3708 14.6308C 52.0273 15.3839 50.7022 16.1489 49.3971 16.9275C 46.9864 18.3697 44.3071 20.076 41.4923 22.0049ZM 18.4288 77.574C 18.4288 74.2403 20.9994 71.4257 24.3291 71.2926L 83.7879 69.2365L 83.7879 82.7076L 24.7154 84.7537C 21.3856 84.8801 18.562 82.3117 18.4288 78.9847L 18.4288 77.574Z"></path></g></g></g><g id="g-root--1.cu_1_sy_dbp6k4ws2nt6-fill" data-item-order="-43980" transform="translate(206.74176025390625, 98.9996337890625)"><g id="-1.cu_1_sy_dbp6k4ws2nt6-fill" stroke="none" fill="#ababab"><g><path d="M 165.986199 203.901093C 156.501099 217.734893 139.638899 230.028993 128.505899 236.689293C 127.200699 237.467793 125.875599 238.232893 124.532099 238.985993C 119.668399 241.712593 114.562999 244.284293 109.284699 246.780993L 118.718699 270.831893C 136.312299 262.651793 154.428199 251.702693 167.701799 237.136293C 176.487799 227.494593 178.106299 218.223493 178.106299 203.901093C 178.106299 189.578793 176.487799 180.307693 167.701799 170.665893C 175.801699 181.148093 173.055099 193.591293 165.986199 203.901093ZM 20.4382 171.12746C 36.0626 154.03646 58.3749 141.92516 78.6817 133.42416C 82.776 131.76136 88.1553 129.54646 94.2736 126.84926C 106.5574 121.48416 118.308 116.12336 128.783 109.89486C 139.952 103.23456 156.869 90.94046 166.385 77.10666C 173.477 66.79686 176.232 54.35366 168.106 43.87146C 176.921 53.51326 178.544 62.78436 178.544 77.10666C 178.544 91.42906 176.921 100.70016 168.106 110.34196C 152.482 127.43266 130.169 139.54386 109.8625 148.04446C 105.7682 149.70746 100.3918 151.92146 94.2736 154.61946C 81.9897 159.98446 70.2362 165.34546 59.7611 171.57446C 48.592 178.23446 31.6752 190.52846 22.1594 204.36246C 15.0676 214.67246 12.3642 227.14346 20.6699 237.59746C 11.8554 227.95546 10 218.68446 10 204.36246C 10 190.03946 11.6237 180.76846 20.4382 171.12746ZM 22.307892 76.930801C 31.793 63.097 48.739594 50.802902 59.872589 44.142601C 61.177796 43.364097 62.502899 42.598999 63.846375 41.845901C 68.710083 39.119301 73.815491 36.5476 79.093781 34.050903L 69.65979 10C 52.066193 18.180099 33.950287 29.129196 20.676697 43.695595C 11.890686 53.337295 10.272187 62.608398 10.272187 76.930801C 10.272187 91.253097 11.890686 100.5242 20.676697 110.166C 12.576782 99.683792 15.238983 87.2406 22.307892 76.930801Z"></path></g></g></g><g id="g-root-tx_codemast_13z8odwws2pzb-fill" data-item-order="0" transform="translate(195, 39)"><g id="tx_codemast_13z8odwws2pzb-fill" stroke="none" fill="#f4f4f4"><g><text style="font: 20px Roboto, sans-serif; white-space: pre;" font-size="20px" font-family="Roboto, sans-serif"><tspan x="14.85" y="34" dominant-baseline="ideographic">CodeMaster's Vision</tspan></text></g></g></g><g id="g-root-tx_academic_18f26icws2p72-fill" data-item-order="0" transform="translate(15, 135)"><g id="tx_academic_18f26icws2p72-fill" stroke="none" fill="#dffff0"><g><text style="font: 20px Roboto, sans-serif; white-space: pre;" font-size="20px" font-family="Roboto, sans-serif"><tspan x="26.84" y="34" dominant-baseline="ideographic">Academic </tspan><tspan x="21.38" y="58" dominant-baseline="ideographic">Excellence</tspan></text></g></g></g><g id="g-root-grad_147zer8ws8a2y-fill" data-item-order="0" transform="translate(135, 135)"></g><g id="g-root-owl_5v14kws5hjg-fill" data-item-order="0" transform="translate(399, 135)"></g><g id="g-root-tx_thoughtl_1lqiovows2nm5-fill" data-item-order="0" transform="translate(459, 135)"><g id="tx_thoughtl_1lqiovows2nm5-fill" stroke="none" fill="#fffbd5"><g><text style="font: 20px Roboto, sans-serif; white-space: pre;" font-size="20px" font-family="Roboto, sans-serif"><tspan x="12" y="34" dominant-baseline="ideographic">Thought </tspan><tspan x="12" y="58" dominant-baseline="ideographic">Leadership</tspan></text></g></g></g><g id="g-root-tx_innovati_1ulj81gws2pz8-fill" data-item-order="0" transform="translate(15, 279)"><g id="tx_innovati_1ulj81gws2pz8-fill" stroke="none" fill="#fff0e2"><g><text style="font: 20px Roboto, sans-serif; white-space: pre;" font-size="20px" font-family="Roboto, sans-serif"><tspan x="22.93" y="34" dominant-baseline="ideographic">Innovation</tspan></text></g></g></g><g id="g-root-idea_1qbbzp0wsfbws-fill" data-item-order="0" transform="translate(135, 267)"></g><g id="g-root-buil_qoen3ows2oeg-fill" data-item-order="0" transform="translate(399, 267)"></g><g id="g-root-tx_industry_8vvofows2olf-fill" data-item-order="0" transform="translate(459, 267)"><g id="tx_industry_8vvofows2olf-fill" stroke="none" fill="#e5f8ff"><g><text style="font: 20px Roboto, sans-serif; white-space: pre;" font-size="20px" font-family="Roboto, sans-serif"><tspan x="12" y="34" dominant-baseline="ideographic">Industry </tspan><tspan x="12" y="58" dominant-baseline="ideographic">Partnership</tspan></text></g></g></g><g id="g-root-tf_8vvur8wrx43p-stroke" data-item-order="-250257" transform="translate(-9, -9)"></g><g id="g-root--1.cu_sy_djtcokws1a8d-stroke" data-item-order="-44000" transform="translate(212.26953125, 99.16561889648438)"><g id="-1.cu_sy_djtcokws1a8d-stroke" fill="none" stroke-linecap="round" stroke-linejoin="round" stroke-miterlimit="4" stroke="#2c2c2c" stroke-width="2"><g><path d="M 15.0326 206.541496C 15.9629 207.112496 17.0468 207.444496 18.1904 207.444496L 19.2095 207.444496C 24.2441 213.857896 30.6852 219.848896 37.1417 224.982996L 29.3103 225.260696C 25.9806 225.393796 23.41 228.208396 23.41 231.542096L 23.41 232.952696C 23.5432 236.279696 26.3668 238.848196 29.6965 238.721796L 55.9034 237.809096C 61.4301 241.013396 67.2932 243.994396 73.3864 246.876096L 63.9578 270.929496C 46.3568 262.748596 28.2306 251.796196 14.9511 237.223296C 7.5094 227.592896 9.223 216.307196 15.0326 206.541496ZM 15.133342 110.003595C 7.076542 99.577095 9.706442 87.063395 16.752242 76.799995C 16.204642 77.617195 15.449042 78.809795 14.959442 79.650695C 16.476142 80.525295 17.443242 80.525295 18.546642 80.525295L 19.731442 80.525295C 24.773642 86.939095 30.927942 92.932695 37.386942 98.064495L 29.285442 98.344695C 25.955642 98.477795 23.385142 101.292395 23.385142 104.626095L 23.385142 106.036695C 23.518342 109.363695 26.341942 111.932195 29.671642 111.805795L 56.162042 110.888195C 66.137742 116.666395 77.207042 121.322595 88.745842 126.378595L 89.077642 126.525195L 88.745842 126.670595C 82.647342 129.367795 77.285442 131.582795 73.204342 133.245495C 68.085642 135.395195 62.839142 137.775895 57.604942 140.409495C 42.141042 132.628695 26.768942 122.772395 15.133342 110.003595ZM 135.705442 179.499495L 148.086942 180.001495C 151.296842 180.127895 153.910242 177.729795 154.036842 174.522595L 154.036842 173.244995C 154.036842 170.037795 151.606142 167.349595 148.396242 167.216495L 113.666042 165.834295C 105.899842 161.787995 97.618842 158.040095 89.076842 154.294295C 95.038242 151.663195 100.277342 149.498795 104.284442 147.866195C 109.592042 145.637095 115.037042 143.159795 120.463242 140.409495C 135.730842 148.147695 150.600742 157.992395 162.090942 170.601695C 170.190842 181.083895 167.316442 193.589395 160.247542 203.899295C 160.241942 203.890995 160.236342 203.882795 160.230642 203.874595C 160.236342 203.866295 160.241942 203.858095 160.247642 203.849895C 161.783442 201.609895 163.115242 199.269195 164.176142 196.869795C 163.097642 195.027395 161.468242 193.749395 159.234342 193.749395L 152.217042 193.749395C 147.118042 188.480595 141.266142 183.608295 135.705442 179.499495ZM 113.692421 38.8982L 148.396221 40.2793C 151.606021 40.4124 154.036721 43.1006 154.036721 46.3078L 154.036721 47.5854C 153.910221 50.7926 151.346321 53.2214 148.136521 53.0949L 135.788021 52.6035C 141.347621 56.7126 147.133121 61.5442 152.229621 66.8122L 159.234321 66.8122C 161.474821 66.8122 163.659221 68.2291 164.735421 70.0804C 168.548821 61.6721 169.111421 51.826 162.340421 43.3864C 149.060921 28.8136 130.934721 18.181 113.333621 10L 103.905121 34.0534C 107.242421 35.6318 110.510621 37.2399 113.692421 38.8982Z"></path></g></g></g><g id="g-root-4.cu_sy_8cub8ws1bta-stroke" data-item-order="-43996" transform="translate(291.013916015625, 253.9658203125)"><g id="4.cu_sy_8cub8ws1bta-stroke" fill="none" stroke-linecap="round" stroke-linejoin="round" stroke-miterlimit="4" stroke="#2c2c2c" stroke-width="2"><g><path d="M 69.652 12.374C 72.8619 12.5071 75.2926 15.1953 75.2926 18.4025L 75.2926 19.6801C 75.1661 22.8874 72.6022 25.3161 69.3923 25.1897L 10 22.8259L 10 10L 69.652 12.374ZM 78.8627 52.6209C 79.8051 51.4275 80.6989 50.2193 81.5354 48.9991C 83.0713 46.7592 84.5356 44.1467 85.5964 41.7473C 84.6142 40.2268 82.6713 38.9458 80.4375 38.9458L 10 38.9069L 10 52.6209L 78.8627 52.6209ZM 65.3074 66.4553L 10 68.3809L 10 81.852L 45.9823 80.5926C 51.7414 77.0178 58.6982 72.1444 65.3074 66.4553Z"></path></g></g></g><g id="g-root-3.cu_sy_1lymv04ws1a1b-stroke" data-item-order="-43992" transform="translate(217.3424072265625, 253.16552734375)"><g id="3.cu_sy_1lymv04ws1a1b-stroke" fill="none" stroke-linecap="round" stroke-linejoin="round" stroke-miterlimit="4" stroke="#2c2c2c" stroke-width="2"><g><path d="M 10.000031 52.6336C 10.898631 53.1539 12.103431 53.454 13.190731 53.454L 83.680831 53.454L 83.680831 39.74L 20.284231 39.74C 17.073131 43.0393 14.074831 46.5121 11.623131 50.0879C 11.050431 50.9232 10.512531 51.7724 10.000031 52.6336ZM 41.933131 21.9974L 83.680831 23.659L 83.680831 10.8331L 62.747331 10C 58.077931 12.3271 53.572131 14.7402 49.281431 17.2997C 47.030131 18.6465 44.544531 20.2237 41.933131 21.9974ZM 18.321731 77.5515C 18.321731 74.2178 20.892231 71.4032 24.222031 71.2701L 83.680831 69.214L 83.680831 82.6851L 24.608231 84.7312C 21.278531 84.8576 18.454931 82.2892 18.321731 78.9621L 18.321731 77.5515Z"></path></g></g></g><g id="g-root-2.cu_sy_147zblgws198o-stroke" data-item-order="-43988" transform="translate(291.01373291015625, 127.07073974609375)"><g id="2.cu_sy_147zblgws198o-stroke" fill="none" stroke-linecap="round" stroke-linejoin="round" stroke-miterlimit="4" stroke="#2c2c2c" stroke-width="2"><g><path d="M 69.652 12.374C 72.8619 12.5071 75.2926 15.1953 75.2926 18.4025L 75.2926 19.6801C 75.1661 22.8874 72.6022 25.3161 69.3923 25.1897L 10 22.8259L 10 10L 69.652 12.374ZM 79.467 52.6209C 80.3141 51.5352 81.1207 50.4377 81.88 49.3302C 83.4557 47.0322 84.8166 44.6281 85.8905 42.1635C 84.8338 40.2434 82.7819 38.9069 80.4902 38.9069L 10 38.9069L 10 52.6209L 79.467 52.6209ZM 66.0837 66.4415L 10 68.3809L 10 81.852L 46.9214 80.5732C 52.6853 76.9594 59.5694 72.0937 66.0837 66.4415Z"></path></g></g></g><g id="g-root-1.cu_sy_qwit84ws1atl-stroke" data-item-order="-43984" transform="translate(217.225830078125, 126.21466064453125)"><g id="1.cu_sy_qwit84ws1atl-stroke" fill="none" stroke-linecap="round" stroke-linejoin="round" stroke-miterlimit="4" stroke="#2c2c2c" stroke-width="2"><g><path d="M 20.0608 39.7625C 16.9982 42.9437 14.1971 46.2553 11.843 49.6887C 11.1882 50.6438 10.5755 51.6202 10 52.6087C 10.9079 53.1433 12.006 53.4765 13.1095 53.4765L 83.7879 53.4765L 83.7879 39.7625L 20.0608 39.7625ZM 41.4923 22.0049L 83.7879 23.6815L 83.7879 10.8556L 62.1184 10C 59.1294 11.5014 56.209 13.0397 53.3708 14.6308C 52.0273 15.3839 50.7022 16.1489 49.3971 16.9275C 46.9864 18.3697 44.3071 20.076 41.4923 22.0049ZM 18.4288 77.574C 18.4288 74.2403 20.9994 71.4257 24.3291 71.2926L 83.7879 69.2365L 83.7879 82.7076L 24.7154 84.7537C 21.3856 84.8801 18.562 82.3117 18.4288 78.9847L 18.4288 77.574Z"></path></g></g></g><g id="g-root--1.cu_1_sy_dbp6k4ws2nt6-stroke" data-item-order="-43980" transform="translate(206.74176025390625, 98.9996337890625)"><g id="-1.cu_1_sy_dbp6k4ws2nt6-stroke" fill="none" stroke-linecap="round" stroke-linejoin="round" stroke-miterlimit="4" stroke="#2c2c2c" stroke-width="2"><g><path d="M 165.986199 203.901093C 156.501099 217.734893 139.638899 230.028993 128.505899 236.689293C 127.200699 237.467793 125.875599 238.232893 124.532099 238.985993C 119.668399 241.712593 114.562999 244.284293 109.284699 246.780993L 118.718699 270.831493C 136.312299 262.651793 154.428199 251.702693 167.701799 237.136293C 176.487799 227.494593 178.106299 218.223493 178.106299 203.901093C 178.106299 189.578793 176.487799 180.307693 167.701799 170.665893C 175.801699 181.148093 173.055099 193.591293 165.986199 203.901093ZM 78.6817 133.42416C 58.3749 141.92516 36.0626 154.03626 20.4382 171.12706C 11.6237 180.76876 10 190.03996 10 204.36226C 10 218.68456 11.8554 227.95576 20.6699 237.59746C 12.3642 227.14336 15.0676 214.67206 22.1594 204.36226C 31.6752 190.52846 48.592 178.23436 59.7611 171.57406C 70.2362 165.34556 81.9897 159.98426 94.2736 154.61916C 100.3918 151.92196 105.7682 149.70756 109.8625 148.04486C 130.1694 139.54386 152.4817 127.43266 168.106 110.34196C 176.9206 100.70016 178.5443 91.42906 178.5443 77.10666C 178.5443 62.78436 176.9206 53.51326 168.106 43.87146C 176.2322 54.35366 173.4767 66.79686 166.3849 77.10666C 156.8691 90.94046 139.9523 103.23456 128.7832 109.89486C 118.3081 116.12336 106.5574 121.48416 94.2736 126.84926C 88.1553 129.54646 82.776 131.76136 78.6817 133.42416ZM 22.307892 76.930801C 31.793 63.097 48.739594 50.802902 59.872589 44.142601C 61.177796 43.364097 62.502899 42.598999 63.846375 41.845901C 68.710083 39.119301 73.815491 36.5476 79.093781 34.050903L 69.65979 10.000397C 52.066193 18.180099 33.950287 29.129196 20.676697 43.695595C 11.890686 53.337295 10.272187 62.608398 10.272187 76.930801C 10.272187 91.253097 11.890686 100.5242 20.676697 110.166C 12.576782 99.683792 15.238983 87.2406 22.307892 76.930801Z"></path></g></g></g><g id="g-root-tx_codemast_13z8odwws2pzb-stroke" data-item-order="0" transform="translate(195, 39)"></g><g id="g-root-tx_academic_18f26icws2p72-stroke" data-item-order="0" transform="translate(15, 135)"></g><g id="g-root-grad_147zer8ws8a2y-stroke" data-item-order="0" transform="translate(135, 135)"><g id="grad_147zer8ws8a2y-stroke" fill="none" stroke-linecap="round" stroke-linejoin="round" stroke-miterlimit="4" stroke="#43dd93" stroke-width="2"><g><path d="M 10 10M 25.798 48.222L 33.924 56.970001L 42.085999 48.183998M 33.658001 18.91C 33.884247 18.950008 34.115753 18.950008 34.342003 18.91L 54.167999 15.462C 54.40591 15.418922 54.578915 15.211781 54.578915 14.969999C 54.578915 14.72822 54.40591 14.521078 54.167999 14.478001L 34.341999 11.03C 34.115753 10.989992 33.884247 10.989992 33.658001 11.03L 13.832 14.478001C 13.594088 14.521078 13.421084 14.72822 13.421084 14.969999C 13.421084 15.211781 13.594088 15.418922 13.832 15.462ZM 14 26.969999C 12.365808 29.717184 11.354038 32.78936 11.036 35.970001C 11.018845 36.228981 11.109765 36.483498 11.28713 36.672989C 11.464497 36.862484 11.71245 36.970016 11.972 36.970001L 15.972 36.970001C 16.250925 36.970806 16.517511 36.855083 16.707396 36.650768C 16.897278 36.446457 16.993198 36.172119 16.972 35.893997C 16.639364 32.739189 15.625312 29.694305 14 26.969999ZM 10 10M 14 15.492001L 14 26.969999M 10 10M 22 30.969999L 22 16.883999M 10 10M 46 16.883999L 46 30.969999M 22 24.970001C 29.789404 27.56596 38.210594 27.56596 46 24.969999M 30.959999 39.77C 32.639999 41.369999 35.279999 41.369999 36.959999 39.769997M 32 31.969999C 31.568378 31.293768 30.799957 30.909557 30 30.969999C 29.200041 30.909557 28.43162 31.293768 28 31.969999M 40 31.969999C 39.568378 31.293768 38.799957 30.909557 38 30.969999C 37.200043 30.909557 36.431618 31.293768 36 31.969999M 21.959999 30.969999C 20.212 31.844 20.76 35.77 22.917999 36.748001C 23.52544 37.022888 23.955952 37.582401 24.066 38.239998C 24.952 43.528 31.176001 46.970001 33.959999 46.970001C 36.743999 46.970001 42.959999 43.528 43.854 38.239998C 43.96405 37.582401 44.394562 37.022888 45.001999 36.748001C 47.164001 35.767998 47.706001 31.844 45.959999 30.969999M 42.085999 48.183998L 52 51.473999L 52.035999 51.486C 54.48579 52.395367 56.338375 54.442017 57 56.969997M 25.799999 48.222L 16 51.473999L 15.964001 51.486C 13.514208 52.395367 11.661623 54.442017 11 56.969997"></path></g></g></g><g id="g-root-owl_5v14kws5hjg-stroke" data-item-order="0" transform="translate(399, 135)"><g id="owl_5v14kws5hjg-stroke" fill="none" stroke-linecap="round" stroke-linejoin="round" stroke-miterlimit="4" stroke="#ffe711" stroke-width="2"><g><path d="M 34.779999 21.52L 46.959999 16.860001C 47.17268 16.774992 47.312153 16.569038 47.312153 16.34C 47.312153 16.110962 47.17268 15.905008 46.959999 15.82L 34.779999 11.14C 34.275589 10.959931 33.724411 10.959931 33.220001 11.14L 19.720001 16.34L 33.220001 21.52C 33.720711 21.720306 34.279289 21.720306 34.779999 21.52ZM 43.900002 25.119999L 43.900002 18.02M 24.1 18.02L 24.1 25.119999M 19.720001 16.34L 19.720001 24.040001M 35.099998 29.52C 35.099998 32.557568 37.562435 35.02 40.599998 35.02C 43.637566 35.02 46.100002 32.557568 46.100002 29.52C 46.100002 26.482435 43.637566 24.02 40.599998 24.02C 37.562435 24.02 35.099998 26.482435 35.099998 29.52M 21.9 29.52C 21.900002 32.557568 24.362434 35.02 27.4 35.02C 30.437567 35.02 32.900002 32.557568 32.900002 29.52C 32.900002 26.482435 30.437567 24.02 27.4 24.02C 24.362434 24.02 21.900002 26.482435 21.900002 29.52M 27.4 28.52C 26.852182 28.53064 26.410641 28.972183 26.4 29.52M 28.4 29.52C 28.4 28.967714 27.952284 28.52 27.4 28.52M 27.4 30.52C 27.952284 30.52 28.4 30.072285 28.4 29.52M 26.4 29.52C 26.4 30.072285 26.847715 30.52 27.4 30.52M 40.599998 28.52C 40.047714 28.52 39.599998 28.967714 39.599998 29.52M 41.599998 29.52C 41.589359 28.972183 41.147816 28.53064 40.599998 28.52M 40.599998 30.52C 41.152283 30.52 41.599998 30.072285 41.599998 29.52M 39.599998 29.52C 39.599998 30.072285 40.047714 30.52 40.599998 30.52M 29.280001 34.700001L 34 39.419998L 38.720001 34.700001M 46 37.760002L 46 44.919998C 46 51.547417 40.627419 56.920002 34 56.920002C 27.372583 56.920002 22 51.547417 22 44.920002L 22 37.760002M 44.98 32.82L 46 32.82C 49.645081 32.82 52.600002 35.774921 52.600002 39.419998L 52.599998 43.82C 52.599998 49.884087 47.684086 54.799999 41.619999 54.799999L 40.860001 54.799999M 23.02 32.82L 22 32.82C 18.354919 32.82 15.4 35.774921 15.4 39.419998L 15.4 43.82C 15.399839 49.852982 20.267178 54.756042 26.299999 54.799999L 27.059999 54.799999"></path></g></g></g><g id="g-root-tx_thoughtl_1lqiovows2nm5-stroke" data-item-order="0" transform="translate(459, 135)"></g><g id="g-root-tx_innovati_1ulj81gws2pz8-stroke" data-item-order="0" transform="translate(15, 279)"></g><g id="g-root-idea_1qbbzp0wsfbws-stroke" data-item-order="0" transform="translate(135, 267)"><g id="idea_1qbbzp0wsfbws-stroke" fill="none" stroke-linecap="round" stroke-linejoin="round" stroke-miterlimit="4" stroke="#f79438" stroke-width="2"><g><path d="M 56 57L 56 55C 56.024189 53.420605 55.27803 51.928295 54.000004 51.000004C 51.330002 48.962002 45.459999 45 34 45C 22.540001 45 16.67 48.962002 14 51C 12.721972 51.928295 11.975817 53.420605 12 55.000004L 12 57M 34 57L 44.644001 46.355999M 34 57L 23.355999 46.355999M 37 54L 34 45L 31 54M 21.332001 47.001999L 19 54L 25 57M 46.667999 47.001999L 49 54L 43 57M 38 41L 30 41M 34 11L 34 13M 50 25L 48 25M 48 15L 46 17M 18 25L 20 25M 20 15L 22 17M 48 35L 46 33M 20 35L 22 33M 43 26C 43.018871 21.556046 39.791313 17.763567 35.401527 17.071566C 31.01174 16.379564 26.774008 18.995224 25.424856 23.229473C 24.075705 27.463722 26.019062 32.048851 30 34.024002L 30 36C 30 36.552284 30.447716 37 31 37L 37 37C 37.552284 37 38 36.552284 38 36L 38 34.024002C 41.054688 32.515297 42.9916 29.406937 43 26Z"></path></g></g></g><g id="g-root-buil_qoen3ows2oeg-stroke" data-item-order="0" transform="translate(399, 267)"><g id="buil_qoen3ows2oeg-stroke" fill="none" stroke-linecap="round" stroke-linejoin="round" stroke-miterlimit="4" stroke="#1ac3fb" stroke-width="2"><g><path d="M 10 10M 45 50.880001L 37.080002 52.48M 38 43.580002L 34.299999 45.099998C 33.711929 45.348942 33.048073 45.348942 32.459999 45.099998C 31.593096 44.743824 31.015936 43.912037 30.98572 42.9753C 30.955502 42.038567 31.477854 41.17131 32.32 40.760002L 36.040001 38.959999C 36.496887 38.721878 37.004787 38.598335 37.52 38.599998C 37.907982 38.608067 38.292442 38.675514 38.66 38.800003L 45.419998 41.400002M 23 52.580002L 25.799999 52.580002L 30.459999 56.119999C 30.941761 56.670044 31.772215 56.740723 32.34 56.279999L 39.34 50.66C 39.905155 50.182648 39.993374 49.344566 39.540001 48.759998L 35.700001 44.52M 32 40.919998L 31.52 40.52C 31.007654 40.171066 30.399796 39.989403 29.780001 40C 29.410326 39.994713 29.043266 40.062683 28.700001 40.200001L 23 42.580002M 17 53.580002C 17 54.132286 17.447716 54.580002 18 54.580002L 21 54.580002C 22.104568 54.580002 23 53.68457 23 52.580002L 23 42.580002C 23 41.475433 22.104568 40.580002 21 40.580002L 18 40.580002C 17.447716 40.580002 17 41.027718 17 41.580002ZM 51 53.580002C 51 54.132286 50.552284 54.580002 50 54.580002L 47 54.580002C 45.895432 54.580002 45 53.68457 45 52.580002L 45 42.580002C 45 41.475433 45.895432 40.580002 47 40.580002L 50 40.580002C 50.552284 40.580002 51 41.027718 51 41.580002ZM 33 34.580002L 33 12.42C 33.003246 12.054714 33.201591 11.719054 33.52 11.54C 33.83321 11.349119 34.226791 11.349119 34.540001 11.54L 46.540001 19.24C 46.826572 19.432541 46.998917 19.754749 46.999996 20.099998L 47 34.540001M 45 18.299999L 45 11.58M 33 20.58L 37 20.58M 33 26.58L 39 26.58M 19 30.58L 25 30.58M 33 24.58L 20 24.58C 19.447716 24.58 19 25.027716 19 25.58L 19 34.580002"></path></g></g></g><g id="g-root-tx_industry_8vvofows2olf-stroke" data-item-order="0" transform="translate(459, 267)"></g></g></g></svg>