<?xml version="1.0" encoding="utf-8" standalone="yes"?>
<!DOCTYPE svg PUBLIC "-//W3C//DTD SVG 1.1//EN" "http://www.w3.org/Graphics/SVG/1.1/DTD/svg11.dtd">
<svg width="806" height="451" viewBox="0 0 806 451" style="fill:none;stroke:none;fill-rule:evenodd;clip-rule:evenodd;stroke-linecap:round;stroke-linejoin:round;stroke-miterlimit:1.5;" version="1.1" xmlns="http://www.w3.org/2000/svg" xmlns:xlink="http://www.w3.org/1999/xlink"><style id="fontImports">@import url("https://fonts.googleapis.com/css2?family=Roboto:wght@400;700&amp;display=block");</style><rect id="" x="0" y="0" width="806" height="450" style="fill: #2c2c2c;"></rect><g id="items" style="isolation: isolate"><g id="blend" style="mix-blend-mode: normal"><g id="g-root-tf_qteys4xm9xxf-fill" data-item-order="-360192" transform="translate(-9, -9)"><g id="tf_qteys4xm9xxf-fill" stroke="none" fill="#2c2c2c"><g><path d="M 10 10L 814 10L 814 458L 10 458Z"></path></g></g></g><g id="g-root-4.cu_sy_8rdgxlxamj-fill" data-item-order="-94074" transform="translate(391.7742919921875, 204.0369873046875)"><g id="4.cu_sy_8rdgxlxamj-fill" stroke="none" fill="url(#gradient-ce519c-514854702)"><g><path d="M 77.869913 108.1775C 85.304213 110.464 93.600013 107.4137 97.625713 100.414C 100.829513 94.8412 100.496313 88.2173 97.329613 83.1137C 106.494213 77.3076 113.496913 68.429 116.887913 57.9393C 118.348913 53.4153 119.145913 48.5941 119.145913 43.5863C 119.145913 30.4121 113.676913 18.5102 104.875013 10C 102.969513 20.8139 96.547113 30.0781 87.614513 35.8006C 87.646613 36.2967 87.663913 36.7953 87.663913 37.2988C 87.663913 49.66 77.593413 59.6807 65.170713 59.6807L 65.128813 59.6929C 65.565713 61.2648 65.797713 62.9202 65.797713 64.6296C 65.797713 74.8368 57.482213 83.1087 47.226613 83.1087C 38.812313 83.1087 31.706313 77.5409 29.423113 69.9076L 29.413213 69.9076C 27.786713 70.19 26.113213 70.3349 24.405213 70.3349C 19.170013 70.3349 14.258213 68.9669 10.005413 66.5723L 10.005413 106.7849C 9.941213 115.361 15.842813 123.14 24.590313 125.151C 30.040213 126.406 35.630813 125.124 39.861313 122.142C 54.401813 127.401 70.475013 121.121 77.872413 108.1726L 77.869913 108.1775ZM 117.189175 58.373909C 117.090375 58.226609 116.986775 58.084109 116.885575 57.939209C 113.494175 68.428909 106.491775 77.305009 97.327175 83.113509C 100.496375 88.217209 100.829575 94.841109 97.623375 100.413809C 93.597675 107.416009 85.301875 110.466409 77.867475 108.177309C 70.470175 121.125609 54.396875 127.403209 39.856475 122.147309C 42.680175 131.686509 51.240075 138.619909 61.362275 138.619909C 67.838975 138.619909 73.673975 135.780709 77.778675 131.239509C 82.828675 131.190409 87.651575 130.429009 87.651575 130.429009C 94.338075 129.068409 100.508675 126.293009 105.835175 122.434609C 117.586475 113.922009 125.225775 100.126509 125.225775 84.555209C 125.225775 74.856409 122.263875 65.847609 117.189175 58.373909ZM 24.58793 125.155995C 30.03783 126.410995 35.62833 125.128995 39.85893 122.147395C 42.68263 131.686595 51.24253 138.619995 61.36473 138.619995C 67.84143 138.619995 73.67643 135.780795 77.78113 131.239595C 82.83113 131.190495 87.65413 130.429095 87.65413 130.429095C 94.34053 129.068495 100.51113 126.293095 105.83763 122.434695C 106.28933 124.679495 106.52873 127.002895 106.52873 129.380395C 106.52873 148.802695 90.70483 164.550795 71.18343 164.550795C 69.13233 164.550795 67.12323 164.373995 65.16833 164.042395C 65.16833 164.098895 65.16833 164.152895 65.16833 164.206895C 65.16833 182.298095 50.43043 196.963095 32.24933 196.963095C 23.67213 196.963095 15.86013 193.696495 10.00053 188.347295L 10.00053 106.789795C 9.93633 115.366295 15.83793 123.144495 24.58543 125.155995L 24.58793 125.155995Z"></path></g></g></g><g id="g-root-4.line_sy_1hap9xwxlx9ms-fill" data-item-order="-94069" transform="translate(506.99993896484375, 315)"></g><g id="g-root-3.cu_sy_hsrq1gxlxafh-fill" data-item-order="-94066" transform="translate(266.9999694824219, 204.0418701171875)"><g id="3.cu_sy_hsrq1gxlxafh-fill" stroke="none" fill="url(#gradient-7b63dc-211830244)"><g><path d="M 110.825429 70.3349C 109.117429 70.3349 107.443929 70.19 105.817329 69.91L 105.807529 69.91C 103.524329 77.5409 96.418329 83.1087 88.004029 83.1087C 77.746029 83.1087 69.432929 74.8344 69.432929 64.6296C 69.432929 62.9202 69.667429 61.2648 70.101829 59.6929L 70.059829 59.6806C 57.637129 59.6806 47.566729 49.66 47.566729 37.2988C 47.566729 36.7953 47.584029 36.2968 47.616129 35.8006C 38.683529 30.0781 32.261129 20.8115 30.355629 10C 21.553829 18.5077 16.084229 30.4096 16.084229 43.5863C 16.084229 48.5941 16.879029 53.4153 18.342729 57.9393C 21.734029 68.429 28.736429 77.3051 37.901029 83.1137C 34.731829 88.2173 34.398629 94.8412 37.604829 100.414C 41.630629 107.4161 49.926329 110.466 57.360729 108.1775C 64.758029 121.126 80.831329 127.403 95.371729 122.147C 99.602329 125.129 105.192929 126.411 110.642829 125.156C 119.390229 123.142 125.292229 115.364 125.227229 106.7898L 125.227229 66.5772C 120.977229 68.9718 116.063029 70.3398 110.827929 70.3398L 110.825429 70.3349ZM 110.640363 125.151112C 105.190463 126.406112 99.599863 125.124112 95.369263 122.142512C 92.545563 131.681712 83.985763 138.615112 73.863463 138.615112C 67.386763 138.615112 61.551863 135.775912 57.447163 131.234712C 52.397063 131.185612 47.574163 130.424212 47.574163 130.424212C 40.887663 129.063612 34.717063 126.288212 29.390563 122.429812C 28.938863 124.674612 28.699463 126.998012 28.699463 129.375512C 28.699463 148.797812 44.523363 164.545912 64.044763 164.545912C 66.095863 164.545912 68.105063 164.369112 70.059863 164.037512C 70.059863 164.094012 70.059863 164.148012 70.059863 164.202012C 70.059863 182.293212 84.797763 196.958212 102.978863 196.958212C 111.556063 196.958212 119.368063 193.691612 125.227663 188.342412L 125.227663 106.784912C 125.291863 115.361412 119.390263 123.139612 110.642763 125.151112L 110.640363 125.151112ZM 57.3583 108.172548C 49.9239 110.459148 41.6281 107.408748 37.6024 100.409048C 34.3986 94.836348 34.7318 88.212448 37.8986 83.108748C 28.734 77.302748 21.7316 68.424148 18.3402 57.934448C 18.239 58.079348 18.1353 58.221848 18.0366 58.369148C 12.9619 65.842848 10 74.851648 10 84.550448C 10 100.121748 17.6392 113.917248 29.3906 122.429848C 34.717 126.288248 40.8876 129.061148 47.5741 130.424248C 47.5741 130.424248 52.3971 131.185648 57.4471 131.234748C 61.5518 135.778448 67.3867 138.615148 73.8634 138.615148C 83.9857 138.615148 92.5456 131.681748 95.3693 122.142548C 80.8288 127.400848 64.7556 121.120848 57.3583 108.172548Z"></path></g></g></g><g id="g-root-3.line_sy_4hxor8xlx8um-fill" data-item-order="-94061" transform="translate(218.99996948242188, 315)"></g><g id="g-root-2.cu_sy_18gxoycxlx9fr-fill" data-item-order="-94058" transform="translate(391.77484130859375, 111)"><g id="2.cu_sy_18gxoycxlx9fr-fill" stroke="none" fill="url(#gradient-2898bd-56937253)"><g><path d="M 23.8642 128.405316C 36.7484 135.353516 52.8562 130.593716 59.8389 117.773216C 61.9418 113.912316 62.9785 109.759116 63.0476 105.652616L 63.0895 103.039416C 63.2598 100.637416 63.9386 98.233016 65.1653 95.978316C 67.4114 91.852216 71.0891 88.993416 75.2531 87.674516C 80.9843 80.940016 84.43 71.476916 84.43 61.962316C 84.4029 60.577116 84.3017 59.209116 84.1338 57.860716C 81.2682 56.310916 77.9681 55.424316 74.478 55.424316C 69.6576 55.424316 65.2468 57.096916 61.7715 59.896716C 62.8156 63.035616 62.8131 66.540316 61.5173 69.863316C 59.481 75.087316 54.7864 78.501216 49.5685 79.169216L 46.5918 79.346116C 40.7741 79.847116 35.4624 83.550816 33.2089 89.332316C 31.7181 93.156316 31.8341 97.203916 33.2262 100.743016C 30.2396 99.129416 26.8878 98.186316 23.2496 98.186316C 18.2291 98.186316 13.6185 99.932516 10 102.850316L 10 106.504916C 10.4542 115.398216 15.4178 123.851916 23.8617 128.405316L 23.8642 128.405316ZM 61.7715 59.8943C 62.8156 63.0331 62.8131 66.5379 61.5173 69.8609C 59.481 75.0849 54.7864 78.4988 49.5685 79.1668L 46.5918 79.3436C 40.7741 79.8447 35.4624 83.5484 33.2089 89.3299C 31.7181 93.1539 31.8341 97.2015 33.2262 100.7406C 30.2396 99.127 26.8878 98.1839 23.2496 98.1839C 18.2291 98.1839 13.6185 99.9301 10 102.8479L 10 33.8284C 10 20.6666 20.7221 10 33.9469 10C 44.2568 10 53.0462 16.4839 56.4203 25.5786C 71.0941 29.8104 82.1888 42.4196 84.1313 57.8607C 81.2657 56.311 77.9657 55.4243 74.4756 55.4243C 69.6551 55.4243 65.2443 57.0969 61.769 59.8968L 61.7715 59.8943ZM 105.456983 96.314717C 105.456983 81.357517 96.919283 68.387117 84.432383 61.959717C 84.432383 71.476817 80.986783 80.937517 75.255483 87.674417C 71.091583 88.993317 67.413883 91.854517 65.167783 95.978217C 63.938583 98.232917 63.262283 100.637317 63.091983 103.039317L 63.049983 105.652517C 62.980883 109.759017 61.944183 113.912217 59.841283 117.773117C 52.858583 130.593517 36.750783 135.353317 23.866583 128.405217C 15.422683 123.851717 10.459083 115.398117 10.004883 106.504817L 10.004883 159.614017C 14.255183 162.008717 19.169483 163.376717 24.404683 163.376717C 26.112683 163.376717 27.786083 163.231717 29.412683 162.951717L 29.422583 162.951717C 31.705683 170.582717 38.811783 176.150717 47.226083 176.150717C 57.484083 176.150717 65.797183 167.875717 65.797183 157.671317C 65.797183 155.961917 65.562683 154.306517 65.128283 152.734717L 65.170183 152.722417C 77.592883 152.722417 87.663383 142.701817 87.663383 130.340617C 87.663383 129.837117 87.613983 128.842417 87.613983 128.842417C 96.546583 123.119817 102.968983 113.853217 104.874483 103.041817C 105.259483 100.858317 105.461883 98.611117 105.461883 96.319617L 105.456983 96.314717Z"></path></g></g></g><g id="g-root-2.line_sy_v5h6l0xlxb0o-fill" data-item-order="-94053" transform="translate(500.99993896484375, 195)"></g><g id="g-root-1.cu_sy_detn6cxlxa81-fill" data-item-order="-94050" transform="translate(286.770751953125, 111)"><defs><linearGradient id="gradient-ce519c-514854702" x2="0" y2="1"><stop offset="0" stop-color="#dd57a8"></stop><stop offset="1" stop-color="#bf4a90"></stop></linearGradient><linearGradient id="gradient-7b63dc-211830244" x2="0" y2="1"><stop offset="0" stop-color="#7f64e9"></stop><stop offset="1" stop-color="#7761cf"></stop></linearGradient><linearGradient id="gradient-2898bd-56937253" x2="0" y2="1"><stop offset="0" stop-color="#1fa9d7"></stop><stop offset="1" stop-color="#3187a3"></stop></linearGradient><linearGradient id="gradient-40ae79-389135447" x2="0" y2="1"><stop offset="0" stop-color="#3bc482"></stop><stop offset="1" stop-color="#449870"></stop></linearGradient></defs><g id="1.cu_sy_detn6cxlxa81-fill" stroke="none" fill="url(#gradient-40ae79-389135447)"><g><path d="M 53.68292 59.8943C 52.63892 63.0331 52.64132 66.5379 53.93722 69.8609C 55.97352 75.0849 60.66812 78.4988 65.88602 79.1668L 68.86272 79.3436C 74.68032 79.8447 79.99202 83.5484 82.24552 89.3299C 83.73632 93.1539 83.62032 97.2015 82.22822 100.7406C 85.21482 99.127 88.56672 98.1839 92.20492 98.1839C 97.22532 98.1839 101.83602 99.9301 105.45442 102.8479L 105.45442 33.8284C 105.45442 20.6666 94.73242 10 81.50752 10C 71.19762 10 62.40822 16.4839 59.03412 25.5786C 44.36042 29.8104 33.26562 42.4196 31.32312 57.8607C 34.18872 56.311 37.48882 55.4243 40.97892 55.4243C 45.79942 55.4243 50.21012 57.0969 53.68542 59.8968L 53.68292 59.8943ZM 40.201373 87.674516C 44.365273 88.993416 48.042973 91.854616 50.289073 95.978316C 51.518273 98.233016 52.194573 100.637416 52.364873 103.039416L 52.406873 105.652616C 52.475973 109.759116 53.510173 113.912316 55.615573 117.773216C 62.598273 130.593716 78.706073 135.353516 91.590273 128.405316C 100.034173 123.851916 104.997773 115.398216 105.451973 106.504916L 105.451973 102.850316C 101.833573 99.932516 97.222873 98.186316 92.202473 98.186316C 88.566673 98.186316 85.212373 99.129416 82.225773 100.743016C 83.617873 97.203916 83.731373 93.153916 82.243073 89.332316C 79.989573 83.550816 74.677873 79.847116 68.860173 79.346116L 65.883473 79.169216C 60.665673 78.501216 55.970973 75.087316 53.934673 69.863316C 52.638873 66.540316 52.636373 63.035616 53.680473 59.896716C 50.205173 57.096916 45.794473 55.424316 40.973973 55.424316C 37.483873 55.424316 34.183773 56.313416 31.318173 57.860716C 31.147873 59.206616 31.049173 60.574616 31.021973 61.962316C 31.021973 71.479416 34.467673 80.940016 40.198873 87.676916L 40.201373 87.674516ZM 91.5904 128.405258C 78.7061 135.353358 62.5984 130.593558 55.6157 117.773058C 53.5127 113.912158 52.4761 109.759058 52.407 105.652558L 52.365 103.039358C 52.1947 100.637358 51.5159 98.232858 50.2892 95.978258C 48.0431 91.852058 44.3654 88.993258 40.2015 87.674358C 34.4702 80.939958 31.0245 71.476858 31.0245 61.962158C 18.5352 68.389558 10 81.362358 10 96.317158C 10 98.611058 10.2024 100.855858 10.5874 103.039358C 12.4929 113.853258 18.9153 123.117358 27.8479 128.839958C 27.8479 128.839958 27.7985 129.834658 27.7985 130.338158C 27.7985 142.699358 37.869 152.719958 50.2917 152.719958L 50.3336 152.732258C 49.8968 154.304058 49.6647 155.959458 49.6647 157.668858C 49.6647 167.876158 57.9803 176.148158 68.2358 176.148158C 76.6501 176.148158 83.7562 170.580158 86.0393 162.947158L 86.0492 162.947158C 87.6757 163.229158 89.3492 163.374158 91.0572 163.374158C 96.2924 163.374158 101.2042 162.006158 105.457 159.611558L 105.457 106.502358C 105.0028 115.395658 100.0392 123.849258 91.5953 128.402758L 91.5904 128.405258Z"></path></g></g></g><g id="g-root-1.line_sy_4j6mxgxlxb0q-fill" data-item-order="-94045" transform="translate(219, 195)"></g><g id="g-root-tx_visionco_1q9gnmcxlx98r-fill" data-item-order="0" transform="translate(201, 39)"><g id="tx_visionco_1q9gnmcxlx98r-fill" stroke="none" fill="#f4f4f4"><g><text style="font: 20px Roboto, sans-serif; white-space: pre;" font-size="20px" font-family="Roboto, sans-serif"><tspan x="15.14" y="34" dominant-baseline="ideographic">Vision CodeMaster's Mission Breakdown</tspan></text></g></g></g><g id="g-root-tx_empowerm_zk26c4xm9wxz-fill" data-item-order="0" transform="translate(15, 183)"><g id="tx_empowerm_zk26c4xm9wxz-fill" stroke="none" fill="#f4f4f4"><g><text style="font: 20px Roboto, sans-serif; white-space: pre;" font-size="20px" font-family="Roboto, sans-serif"><tspan x="22.31" y="34" dominant-baseline="ideographic">Empowerment</tspan></text></g></g></g><g id="g-root-4_1cy0590xlxato-fill" data-item-order="0" transform="translate(171, 177)"></g><g id="g-root-1_zkok9gxme4gc-fill" data-item-order="0" transform="translate(567, 177)"></g><g id="g-root-tx_critical_14301w4xm9xc8-fill" data-item-order="0" transform="translate(615, 183)"><g id="tx_critical_14301w4xm9xc8-fill" stroke="none" fill="#f4f4f4"><g><text style="font: 20px Roboto, sans-serif; white-space: pre;" font-size="20px" font-family="Roboto, sans-serif"><tspan x="12" y="34" dominant-baseline="ideographic">Critical Thinking</tspan></text></g></g></g><g id="g-root-tx_creativi_1hcl504xm9wqy-fill" data-item-order="0" transform="translate(63, 303)"><g id="tx_creativi_1hcl504xm9wqy-fill" stroke="none" fill="#f4f4f4"><g><text style="font: 20px Roboto, sans-serif; white-space: pre;" font-size="20px" font-family="Roboto, sans-serif"><tspan x="20.94" y="34" dominant-baseline="ideographic">Creativity</tspan></text></g></g></g><g id="g-root-2_vb3pucxm2ux7-fill" data-item-order="0" transform="translate(171, 297)"></g><g id="g-root-targ_1lynatwxlvuv4-fill" data-item-order="0" transform="translate(567, 297)"></g><g id="g-root-tx_leadersh_8zn1xwxm9vyd-fill" data-item-order="0" transform="translate(615, 303)"><g id="tx_leadersh_8zn1xwxm9vyd-fill" stroke="none" fill="#f4f4f4"><g><text style="font: 20px Roboto, sans-serif; white-space: pre;" font-size="20px" font-family="Roboto, sans-serif"><tspan x="12" y="34" dominant-baseline="ideographic">Leadership Skills</tspan></text></g></g></g><g id="g-root-tf_qteys4xm9xxf-stroke" data-item-order="-360192" transform="translate(-9, -9)"></g><g id="g-root-4.cu_sy_8rdgxlxamj-stroke" data-item-order="-94074" transform="translate(391.7742919921875, 204.0369873046875)"><g id="4.cu_sy_8rdgxlxamj-stroke" fill="none" stroke-linecap="round" stroke-linejoin="round" stroke-miterlimit="4" stroke="#f4f4f4" stroke-width="2"><g><path d="M 77.869913 108.1775C 85.304213 110.464 93.600013 107.4137 97.625713 100.414C 100.829513 94.8412 100.496313 88.2173 97.329613 83.1137C 106.494213 77.3076 113.496613 68.429 116.887913 57.9393C 118.349113 53.4153 119.146413 48.5941 119.146413 43.5863C 119.146413 30.4121 113.676813 18.5102 104.875013 10C 102.969513 20.8139 96.547113 30.0781 87.614513 35.8006C 87.646613 36.2967 87.663913 36.7953 87.663913 37.2988C 87.663913 49.66 77.593413 59.6807 65.170713 59.6807L 65.128813 59.6929C 65.565713 61.2648 65.797713 62.9202 65.797713 64.6296C 65.797713 74.8368 57.482213 83.1087 47.226613 83.1087C 38.812313 83.1087 31.706313 77.5409 29.423113 69.9076L 29.413213 69.9076C 27.786713 70.19 26.113213 70.3349 24.405213 70.3349C 19.170013 70.3349 14.258213 68.9669 10.005413 66.5723L 10.005413 106.7849C 9.941213 115.3614 15.842813 123.1396 24.590313 125.1511C 30.040213 126.4062 35.630813 125.1241 39.861313 122.1425C 54.401813 127.4009 70.475013 121.1208 77.872413 108.1726L 77.869913 108.1775ZM 117.189175 58.373909C 117.090375 58.226609 116.986775 58.084109 116.885575 57.939209C 113.494175 68.428909 106.491775 77.305009 97.327175 83.113509C 100.496375 88.217209 100.829575 94.841109 97.623375 100.413809C 93.597675 107.416009 85.301875 110.466409 77.867475 108.177309C 70.470175 121.125609 54.396875 127.403209 39.856475 122.147309C 42.680175 131.686509 51.240075 138.619909 61.362275 138.619909C 67.838975 138.619909 73.673975 135.780709 77.778675 131.239509C 82.828675 131.190409 87.651575 130.429009 87.651575 130.429009C 94.338075 129.068409 100.508675 126.293009 105.835175 122.434609C 117.586475 113.922009 125.225775 100.126509 125.225775 84.555209C 125.225775 74.856409 122.263875 65.847609 117.189175 58.373909ZM 24.58793 125.155995C 30.03783 126.410995 35.62833 125.128995 39.85893 122.147395C 42.68263 131.686595 51.24253 138.619995 61.36473 138.619995C 67.84143 138.619995 73.67643 135.780795 77.78113 131.239595C 82.83113 131.190495 87.65413 130.429095 87.65413 130.429095C 94.34053 129.068495 100.51113 126.293095 105.83763 122.434695C 106.28933 124.679495 106.52873 127.002895 106.52873 129.380395C 106.52873 148.802695 90.70483 164.550795 71.18343 164.550795C 69.13233 164.550795 67.12323 164.373895 65.16833 164.042395C 65.16833 164.098895 65.16833 164.152895 65.16833 164.206895C 65.16833 182.298095 50.43043 196.963095 32.24933 196.963095C 23.67213 196.963095 15.86013 193.696495 10.00053 188.347295L 10.00053 106.789795C 9.93633 115.366295 15.83793 123.144495 24.58543 125.155995L 24.58793 125.155995ZM 100.775218 58.651443C 105.812918 49.470843 104.169118 37.723643 96.107818 30.286743M 81.31569 94.234505C 78.40069 84.975305 70.49239 78.646005 61.46109 77.263305M 39.858917 122.147295C 47.110617 114.931495 47.110617 103.228495 39.858917 96.012695M 88.399444 76.858032C 91.887044 77.818332 95.073544 79.940432 97.319644 83.113732M 65.165982 164.042386C 55.598982 162.409086 47.342682 156.949286 42.050782 149.303686C 42.050782 149.303686 42.048282 149.298786 42.045882 149.296286C 41.890382 149.298786 41.732382 149.301186 41.576882 149.301186C 28.546982 149.301186 17.985382 138.791886 17.985382 125.826486C 17.985382 124.662286 18.071782 123.515386 18.234682 122.395386M 10.002971 153.154663C 9.938771 161.731163 15.840371 169.509363 24.587871 171.520863M 67.098419 137.853706C 69.063119 137.821806 71.064919 138.195106 72.985219 139.022806C 77.489719 140.965506 80.473819 144.949206 81.315519 149.416706"></path></g></g></g><g id="g-root-4.line_sy_1hap9xwxlx9ms-stroke" data-item-order="-94069" transform="translate(506.99993896484375, 315)"><g id="4.line_sy_1hap9xwxlx9ms-stroke" fill="none" stroke-linecap="round" stroke-linejoin="round" stroke-miterlimit="4" stroke="#f4f4f4" stroke-width="2"><g><path d="M 58.000061 10L 12.000061 10"></path><path d="M 18.000061 3.5L 11.500061 10L 18.000061 16.5" stroke-dasharray="none"></path></g></g></g><g id="g-root-3.cu_sy_hsrq1gxlxafh-stroke" data-item-order="-94066" transform="translate(266.9999694824219, 204.0418701171875)"><g id="3.cu_sy_hsrq1gxlxafh-stroke" fill="none" stroke-linecap="round" stroke-linejoin="round" stroke-miterlimit="4" stroke="#f4f4f4" stroke-width="2"><g><path d="M 110.825429 70.3349C 109.117429 70.3349 107.443929 70.19 105.817329 69.91L 105.807529 69.91C 103.524329 77.5409 96.418329 83.1087 88.004029 83.1087C 77.746029 83.1087 69.432929 74.8344 69.432929 64.6296C 69.432929 62.9202 69.667429 61.2648 70.101829 59.6929L 70.059829 59.6806C 57.637129 59.6806 47.566729 49.66 47.566729 37.2988C 47.566729 36.7953 47.584029 36.2968 47.616129 35.8006C 38.683529 30.0781 32.261129 20.8115 30.355629 10C 21.553829 18.5077 16.084229 30.4096 16.084229 43.5863C 16.084229 48.5941 16.879029 53.4153 18.342629 57.9393C 21.734029 68.429 28.736429 77.3051 37.901029 83.1137C 34.731829 88.2173 34.398629 94.8412 37.604829 100.414C 41.630629 107.4161 49.926329 110.4665 57.360729 108.1775C 64.758029 121.1257 80.831329 127.4033 95.371729 122.1474C 99.602329 125.129 105.192929 126.4111 110.642829 125.156C 119.390229 123.1421 125.291829 115.3638 125.227629 106.7898L 125.227629 66.5772C 120.977329 68.9718 116.063029 70.3398 110.827929 70.3398L 110.825429 70.3349ZM 110.640363 125.151112C 105.190463 126.406112 99.599863 125.124112 95.369263 122.142512C 92.545563 131.681712 83.985763 138.615112 73.863463 138.615112C 67.386763 138.615112 61.551863 135.775912 57.447163 131.234712C 52.397063 131.185612 47.574163 130.424212 47.574163 130.424212C 40.887663 129.063612 34.717063 126.288212 29.390563 122.429812C 28.938863 124.674612 28.699463 126.998012 28.699463 129.375512C 28.699463 148.797812 44.523363 164.545912 64.044763 164.545912C 66.095863 164.545912 68.105063 164.369012 70.059863 164.037512C 70.059863 164.094012 70.059863 164.148012 70.059863 164.202012C 70.059863 182.293212 84.797763 196.958212 102.978863 196.958212C 111.556063 196.958212 119.368063 193.691612 125.227663 188.342412L 125.227663 106.784912C 125.291863 115.361412 119.390263 123.139612 110.642763 125.151112L 110.640363 125.151112ZM 57.3583 108.172548C 49.9239 110.459148 41.6281 107.408748 37.6024 100.409048C 34.3986 94.836348 34.7318 88.212448 37.8986 83.108748C 28.734 77.302748 21.7316 68.424148 18.3402 57.934448C 18.239 58.079348 18.1353 58.221848 18.0366 58.369148C 12.9619 65.842848 10 74.851648 10 84.550448C 10 100.121748 17.6392 113.917248 29.3906 122.429848C 34.717 126.288248 40.8876 129.061148 47.5741 130.424248C 47.5741 130.424248 52.3971 131.185648 57.4471 131.234748C 61.5518 135.778448 67.3867 138.615148 73.8634 138.615148C 83.9857 138.615148 92.5456 131.681748 95.3693 122.142548C 80.8288 127.400848 64.7556 121.120848 57.3583 108.172548ZM 34.450525 58.64656C 29.412825 49.46596 31.056725 37.71876 39.118025 30.28186M 53.91272 94.229622C 56.82772 84.970422 64.73602 78.641122 73.76732 77.258422M 46.826206 76.853149C 43.338606 77.813449 40.152106 79.935549 37.906006 83.108849M 95.366901 122.142412C 88.115201 114.926612 88.115201 103.223612 95.366901 96.007812M 70.059815 164.037625C 79.626715 162.404325 87.883015 156.944525 93.174915 149.298925C 93.174915 149.298925 93.177415 149.294025 93.179915 149.291525C 93.335415 149.294025 93.493315 149.296425 93.648815 149.296425C 106.678715 149.296425 117.240415 138.787125 117.240415 125.821725C 117.240415 124.657525 117.154015 123.510625 116.991115 122.390625M 125.22284 153.149902C 125.28694 161.726402 119.38544 169.504602 110.63794 171.516102M 68.127257 137.848823C 66.162557 137.816923 64.160757 138.190223 62.240457 139.017923C 57.735957 140.960623 54.751857 144.944323 53.910157 149.411823"></path></g></g></g><g id="g-root-3.line_sy_4hxor8xlx8um-stroke" data-item-order="-94061" transform="translate(218.99996948242188, 315)"><g id="3.line_sy_4hxor8xlx8um-stroke" fill="none" stroke-linecap="round" stroke-linejoin="round" stroke-miterlimit="4" stroke="#f4f4f4" stroke-width="2"><g><path d="M 10.000031 10L 56.000031 10"></path><path d="M 50.000031 16.5L 56.500031 10L 50.000031 3.5" stroke-dasharray="none"></path></g></g></g><g id="g-root-2.cu_sy_18gxoycxlx9fr-stroke" data-item-order="-94058" transform="translate(391.77484130859375, 111)"><g id="2.cu_sy_18gxoycxlx9fr-stroke" fill="none" stroke-linecap="round" stroke-linejoin="round" stroke-miterlimit="4" stroke="#f4f4f4" stroke-width="2"><g><path d="M 23.8642 128.405316C 36.7484 135.353516 52.8562 130.593716 59.8389 117.773216C 61.9418 113.912316 62.9785 109.759116 63.0476 105.652616L 63.0895 103.039416C 63.2598 100.637416 63.9386 98.233016 65.1653 95.978316C 67.4115 91.852216 71.0891 88.993416 75.2531 87.674516C 80.9843 80.940016 84.43 71.476916 84.43 61.962316C 84.4029 60.577116 84.3017 59.209016 84.1338 57.860716C 81.2682 56.310916 77.9681 55.424316 74.478 55.424316C 69.6576 55.424316 65.2468 57.096916 61.7715 59.896716C 62.8156 63.035516 62.8131 66.540316 61.5173 69.863316C 59.481 75.087316 54.7864 78.501216 49.5685 79.169216L 46.5918 79.346116C 40.7741 79.847116 35.4624 83.550816 33.2089 89.332316C 31.7181 93.156316 31.8341 97.203916 33.2262 100.743016C 30.2396 99.129416 26.8878 98.186316 23.2496 98.186316C 18.2291 98.186316 13.6185 99.932516 10 102.850316L 10 106.504916C 10.4542 115.398216 15.4178 123.851916 23.8617 128.405316L 23.8642 128.405316ZM 61.7715 59.8943C 62.8156 63.0331 62.8131 66.5379 61.5173 69.8609C 59.481 75.0849 54.7864 78.4988 49.5685 79.1668L 46.5918 79.3436C 40.7741 79.8447 35.4624 83.5484 33.2089 89.3299C 31.7181 93.1539 31.8341 97.2015 33.2262 100.7406C 30.2396 99.127 26.8878 98.1839 23.2496 98.1839C 18.2291 98.1839 13.6185 99.9301 10 102.8479L 10 33.8284C 10 20.6666 20.7221 10 33.9469 10C 44.2568 10 53.0462 16.4839 56.4203 25.5786C 71.0941 29.8104 82.1888 42.4196 84.1313 57.8607C 81.2657 56.311 77.9657 55.4243 74.4756 55.4243C 69.6551 55.4243 65.2443 57.0969 61.769 59.8968L 61.7715 59.8943ZM 105.456983 96.314717C 105.456983 81.357517 96.919283 68.387117 84.432383 61.959717C 84.432383 71.476817 80.986783 80.937517 75.255483 87.674417C 71.091583 88.993317 67.413883 91.854517 65.167783 95.978217C 63.938583 98.232917 63.262283 100.637317 63.091983 103.039317L 63.049983 105.652517C 62.980883 109.759017 61.944183 113.912217 59.841283 117.773117C 52.858583 130.593517 36.750783 135.353317 23.866583 128.405217C 15.422683 123.851717 10.459083 115.398117 10.004883 106.504817L 10.004883 159.614017C 14.255183 162.008717 19.169483 163.376717 24.404683 163.376717C 26.112683 163.376717 27.786083 163.231817 29.412683 162.951817L 29.422583 162.951817C 31.705683 170.582717 38.811783 176.150517 47.226083 176.150517C 57.484083 176.150517 65.797183 167.876117 65.797183 157.671317C 65.797183 155.961917 65.562683 154.306517 65.128283 152.734717L 65.170183 152.722417C 77.592883 152.722417 87.663383 142.701817 87.663383 130.340617C 87.663383 129.837117 87.613983 128.842417 87.613983 128.842417C 96.546583 123.119817 102.968983 113.853217 104.874483 103.041817C 105.259483 100.858317 105.461883 98.611117 105.461883 96.319617L 105.456983 96.314717ZM 33.228638 100.743042C 34.331938 103.547842 36.237438 106.033342 38.784638 107.831142M 10.002453 64.604847C 9.938253 56.028347 15.839853 48.250147 24.587353 46.238647M 40.374198 59.793643C 49.748698 56.939743 55.025798 47.066443 52.157698 37.736043C 49.289598 28.407943 39.367198 23.156943 29.992798 26.010943M 56.422811 25.578613C 54.253211 26.597913 52.310711 28.172313 50.827311 30.262413C 50.343511 30.945213 49.928811 31.652613 49.580811 32.382013M 29.963135 72.385742C 32.999035 75.328042 36.817435 77.555642 41.208435 78.705142C 42.640035 79.080842 44.076535 79.326442 45.503235 79.449242M 76.413086 110.950195C 82.726886 114.585095 87.103086 121.186895 87.611486 128.839895M 48.245419 145.619594C 44.775019 141.680094 42.672119 136.519994 42.672119 130.871094M 75.253052 87.674431C 79.634152 86.286731 84.553452 86.608431 88.914752 88.958931M 55.934082 123.326172C 57.718582 126.207072 60.255982 128.682772 63.447382 130.431472C 64.488982 131.001272 65.557782 131.472872 66.646282 131.846172M 31.821725 147.338867C 29.819925 150.288567 28.650025 153.844867 28.650025 157.671367C 28.650025 159.506067 28.919025 161.276867 29.417625 162.949367"></path></g></g></g><g id="g-root-2.line_sy_v5h6l0xlxb0o-stroke" data-item-order="-94053" transform="translate(500.99993896484375, 195)"><g id="2.line_sy_v5h6l0xlxb0o-stroke" fill="none" stroke-linecap="round" stroke-linejoin="round" stroke-miterlimit="4" stroke="#f4f4f4" stroke-width="2"><g><path d="M 64.000061 10L 12.000061 10"></path><path d="M 18.000061 3.5L 11.500061 10L 18.000061 16.5" stroke-dasharray="none"></path></g></g></g><g id="g-root-1.cu_sy_detn6cxlxa81-stroke" data-item-order="-94050" transform="translate(286.770751953125, 111)"><g id="1.cu_sy_detn6cxlxa81-stroke" fill="none" stroke-linecap="round" stroke-linejoin="round" stroke-miterlimit="4" stroke="#f4f4f4" stroke-width="2"><g><path d="M 53.68292 59.8943C 52.63892 63.0331 52.64132 66.5379 53.93722 69.8609C 55.97352 75.0849 60.66812 78.4988 65.88602 79.1668L 68.86272 79.3436C 74.68032 79.8447 79.99202 83.5484 82.24552 89.3299C 83.73632 93.1539 83.62032 97.2015 82.22822 100.7406C 85.21482 99.127 88.56672 98.1839 92.20492 98.1839C 97.22532 98.1839 101.83602 99.9301 105.45442 102.8479L 105.45442 33.8284C 105.45442 20.6666 94.73242 10 81.50752 10C 71.19762 10 62.40822 16.4839 59.03412 25.5786C 44.36042 29.8104 33.26562 42.4196 31.32312 57.8607C 34.18872 56.311 37.48882 55.4243 40.97892 55.4243C 45.79942 55.4243 50.21012 57.0969 53.68542 59.8968L 53.68292 59.8943ZM 40.201373 87.674516C 44.365273 88.993416 48.042973 91.854616 50.289073 95.978316C 51.518273 98.233016 52.194573 100.637416 52.364873 103.039416L 52.406873 105.652616C 52.475973 109.759116 53.510173 113.912316 55.615573 117.773216C 62.598273 130.593716 78.706073 135.353516 91.590273 128.405316C 100.034173 123.851916 104.997773 115.398216 105.451973 106.504916L 105.451973 102.850316C 101.833473 99.932516 97.222873 98.186316 92.202473 98.186316C 88.566673 98.186316 85.212373 99.129416 82.225773 100.743016C 83.617873 97.203916 83.731373 93.153916 82.243073 89.332316C 79.989573 83.550816 74.677873 79.847116 68.860173 79.346116L 65.883473 79.169216C 60.665673 78.501216 55.970973 75.087316 53.934673 69.863316C 52.638873 66.540316 52.636373 63.035516 53.680473 59.896716C 50.205173 57.096916 45.794473 55.424316 40.973973 55.424316C 37.483873 55.424316 34.183773 56.313416 31.318173 57.860716C 31.147873 59.206616 31.049173 60.574616 31.021973 61.962316C 31.021973 71.479416 34.467673 80.940016 40.198873 87.676916L 40.201373 87.674516ZM 91.5904 128.405258C 78.7061 135.353358 62.5984 130.593558 55.6157 117.773058C 53.5127 113.912158 52.4761 109.759058 52.407 105.652558L 52.365 103.039358C 52.1947 100.637358 51.5159 98.232858 50.2892 95.978258C 48.0431 91.852058 44.3654 88.993258 40.2015 87.674358C 34.4702 80.939958 31.0245 71.476858 31.0245 61.962158C 18.5352 68.389558 10 81.362358 10 96.317158C 10 98.611058 10.2024 100.855858 10.5874 103.039358C 12.4929 113.853258 18.9153 123.117358 27.8479 128.839958C 27.8479 128.839958 27.7985 129.834658 27.7985 130.338158C 27.7985 142.699358 37.869 152.719958 50.2917 152.719958L 50.3336 152.732258C 49.8968 154.304058 49.6647 155.959458 49.6647 157.668858C 49.6647 167.876158 57.9803 176.148058 68.2358 176.148058C 76.6501 176.148058 83.7562 170.580258 86.0393 162.946858L 86.0492 162.946858C 87.6757 163.229258 89.3492 163.374258 91.0572 163.374258C 96.2924 163.374258 101.2042 162.006158 105.457 159.611558L 105.457 106.502358C 105.0028 115.395658 100.0392 123.849258 91.5953 128.402758L 91.5904 128.405258ZM 105.452087 64.604847C 105.516187 56.028347 99.614687 48.250147 90.867187 46.238647M 75.080125 59.793643C 65.705725 56.939743 60.428625 47.066443 63.296725 37.736043C 66.164825 28.407943 76.087225 23.156943 85.461625 26.010943M 59.031616 25.578613C 61.201216 26.597913 63.143716 28.172313 64.627116 30.262413C 65.110916 30.945213 65.525616 31.652613 65.873616 32.382013M 85.491272 72.385742C 82.455272 75.328042 78.636972 77.555642 74.245972 78.705142C 72.814372 79.080842 71.377772 79.326442 69.951172 79.449242M 82.2258 100.743042C 81.1225 103.547842 79.217 106.033342 76.6698 107.831142M 39.041295 110.950195C 32.727595 114.585095 28.351395 121.186895 27.842895 128.839895M 67.208984 145.619594C 70.679384 141.680094 72.782284 136.519994 72.782284 130.871094M 40.201373 87.674554C 35.820273 86.286854 30.901073 86.608554 26.539673 88.959054M 59.520427 123.326172C 57.735927 126.207072 55.198527 128.682772 52.007027 130.431472C 50.965427 131.001272 49.896727 131.472872 48.808227 131.846172M 83.635132 147.338867C 85.636832 150.288567 86.806832 153.844867 86.806832 157.671367C 86.806832 159.506067 86.537832 161.276867 86.039232 162.949367"></path></g></g></g><g id="g-root-1.line_sy_4j6mxgxlxb0q-stroke" data-item-order="-94045" transform="translate(219, 195)"><g id="1.line_sy_4j6mxgxlxb0q-stroke" fill="none" stroke-linecap="round" stroke-linejoin="round" stroke-miterlimit="4" stroke="#f4f4f4" stroke-width="2"><g><path d="M 10 10L 62 10"></path><path d="M 56 16.5L 62.5 10L 56 3.5" stroke-dasharray="none"></path></g></g></g><g id="g-root-tx_visionco_1q9gnmcxlx98r-stroke" data-item-order="0" transform="translate(201, 39)"></g><g id="g-root-tx_empowerm_zk26c4xm9wxz-stroke" data-item-order="0" transform="translate(15, 183)"></g><g id="g-root-4_1cy0590xlxato-stroke" data-item-order="0" transform="translate(171, 177)"><g id="4_1cy0590xlxato-stroke" fill="none" stroke-linecap="round" stroke-linejoin="round" stroke-miterlimit="4" stroke="#f4f4f4" stroke-width="2"><g><path d="M 30.721001 40.510002L 18.502001 45.25M 21.639999 31.952499L 26.7715 30.039999C 27.161377 29.894115 27.598412 29.953251 27.935499 30.1975L 28.5355 30.6355C 28.94207 30.929272 29.132021 31.438766 29.017 31.927L 28.888 32.5C 28.773581 32.988628 28.963348 33.498222 29.369499 33.792999L 29.8435 34.135002C 30.250071 34.428772 30.440022 34.938267 30.325001 35.426498L 30.140499 36.211002C 30.052189 36.584476 30.141932 36.977791 30.383499 37.276001L 30.853001 37.859501C 31.093939 38.158012 31.183611 38.551022 31.096001 38.9245L 30.721001 40.5145M 14.8345 37.6105L 16.172501 36.805C 16.453136 36.598099 16.634293 36.283115 16.671999 35.936497L 17.014 32.745998C 17.04195 32.478195 17.156799 32.226898 17.341 32.030502L 20.65 28.476999M 41.165501 25.5625L 24.845501 26.141499L 22.837 20.216499L 36.141998 10.75L 41.165501 25.5625ZM 18.109049 21.819284L 22.836601 20.216063L 22.836601 20.216063L 24.845928 26.141127L 24.845928 26.141127L 20.118376 27.744349C 18.638733 28.246132 17.032469 27.453417 16.530685 25.973774L 16.33799 25.405558C 15.837179 23.926199 16.629957 22.320879 18.109051 21.819284ZM 24.845501 26.141499L 25.789 30.406M 21.639999 31.952499L 20.416 27.644499"></path></g></g></g><g id="g-root-1_zkok9gxme4gc-stroke" data-item-order="0" transform="translate(567, 177)"><g id="1_zkok9gxme4gc-stroke" fill="none" stroke-linecap="round" stroke-linejoin="round" stroke-miterlimit="4" stroke="#f4f4f4" stroke-width="2"><g><path d="M 39.25 22L 39.25 25M 40.75 23.5L 37.75 23.5M 43.75 17.5L 43.75 20.5M 45.25 19L 42.25 19M 38.5 44.5L 44.284 44.5C 44.624218 44.499413 44.939041 44.319897 45.112816 44.027405C 45.286591 43.734909 45.293686 43.372574 45.1315 43.073502L 40.823502 34.045002C 40.775307 33.944309 40.750195 33.834129 40.75 33.7225L 40.75 28.75C 40.75 28.335787 40.414215 28 40 28L 37 28C 36.585785 28 36.25 28.335787 36.25 28.75L 36.25 33.7225C 36.249805 33.834129 36.224693 33.944309 36.176498 34.045002L 31.8685 43.073502C 31.706314 43.372574 31.713411 43.734909 31.887184 44.027405C 32.060959 44.319897 32.375782 44.499413 32.716 44.5L 38.5 44.5M 24.913 32.5L 19.4995 32.5C 20.305254 31.130573 20.768381 29.586817 20.849499 28L 23.5495 28C 23.633965 29.588093 24.101801 31.132107 24.912998 32.5ZM 17.857 32.5L 26.5555 32.5M 12.25 11.5L 31.75 11.5C 31.75 11.5 33.25 11.5 33.25 13L 33.25 26.5C 33.25 26.5 33.25 28 31.75 28L 12.25 28C 12.25 28 10.75 28 10.75 26.5L 10.75 13C 10.75 13 10.75 11.5 12.25 11.5M 10.75 23.5L 33.25 23.5M 33.335499 40L 43.664501 40"></path></g></g></g><g id="g-root-tx_critical_14301w4xm9xc8-stroke" data-item-order="0" transform="translate(615, 183)"></g><g id="g-root-tx_creativi_1hcl504xm9wqy-stroke" data-item-order="0" transform="translate(63, 303)"></g><g id="g-root-2_vb3pucxm2ux7-stroke" data-item-order="0" transform="translate(171, 297)"><g id="2_vb3pucxm2ux7-stroke" fill="none" stroke-linecap="round" stroke-linejoin="round" stroke-miterlimit="4" stroke="#f4f4f4" stroke-width="2"><g><path d="M 42.850151 12.25L 36.550148 12.25C 35.050148 12.25 33.850151 13.3 33.550148 14.65L 30.393551 29.746901M 10 10M 21.40015 30.400002L 21.850151 30.099998C 24.70015 28.299999 28.45015 28.450001 31.30015 30.25C 33.550148 31.599998 36.250149 32.049999 38.65015 31.150002C 38.800148 31 39.100151 31 39.250149 30.849998M 38.15485 18.700075C 41.888199 18.700075 44.875 21.700075 44.875 25.450001C 44.875 27.099998 44.426949 28.450001 43.530998 29.650002C 44.277702 30.700001 44.875 31.900002 44.875 33.400002C 44.875 36.550003 42.33625 39.099998 39.200203 39.099998L 35.914749 39.099998L 37.40815 43.599998L 37.40815 43.75L 32.778698 43.75L 31.28545 41.5C 30.389351 42.25 29.19475 42.699997 28 42.699997C 25.759901 42.699997 23.818584 41.199997 22.92256 39.25L 16.799786 39.25C 13.66372 39.25 11.125 36.699997 11.125 33.549999C 11.125 30.400002 13.66372 27.849998 16.799786 27.849998L 16.94911 27.849998C 16.79977 27.400002 16.799786 27.099998 16.799786 26.650002C 16.799786 22.900074 19.78651 19.900074 23.519905 19.900074C 24.26659 19.900074 25.013199 20.050076 25.759901 20.350075L 25.759901 19.900074C 25.759901 17.851601 26.833599 16.056866 28.447001 15.05215"></path></g></g></g><g id="g-root-targ_1lynatwxlvuv4-stroke" data-item-order="0" transform="translate(567, 297)"><g id="targ_1lynatwxlvuv4-stroke" fill="none" stroke-linecap="round" stroke-linejoin="round" stroke-miterlimit="4" stroke="#f4f4f4" stroke-width="2"><g><path d="M 28 10.75L 28 16.0345M 10.75 28L 16.0345 28M 28 45.25L 28 39.9655M 45.25 28L 39.9655 28M 13.75 28C 13.75 35.87006 20.129942 42.25 28 42.25C 35.87006 42.25 42.25 35.87006 42.25 28C 42.25 20.129942 35.87006 13.75 28 13.75C 20.129942 13.75 13.75 20.129942 13.75 28M 35.850998 23.672501L 31 28.526501C 31.973953 31.011002 31.071791 33.838017 28.838717 35.29908C 26.605642 36.760151 23.653933 36.45467 21.767405 34.567253C 19.880875 32.679836 19.576782 29.727983 21.0389 27.495598C 22.501019 25.26321 25.328455 24.362377 27.8125 25.337502L 32.663502 20.485001L 35.887001 20.485001ZM 25.0945 30.581499C 25.09445 30.946043 25.389956 31.24159 25.754501 31.24159C 26.119043 31.24159 26.414551 30.946043 26.414499 30.581499C 26.414551 30.216957 26.119043 29.92141 25.754501 29.92141C 25.389956 29.92141 25.09445 30.216957 25.0945 30.581499"></path></g></g></g><g id="g-root-tx_leadersh_8zn1xwxm9vyd-stroke" data-item-order="0" transform="translate(615, 303)"></g></g></g></svg>